<?xml version="1.0" standalone="no"?><!DOCTYPE svg PUBLIC "-//W3C//DTD SVG 1.1//EN" "http://www.w3.org/Graphics/SVG/1.1/DTD/svg11.dtd"><svg t="1669700808491" class="icon" viewBox="0 0 1024 1024" version="1.1" xmlns="http://www.w3.org/2000/svg" p-id="9184" xmlns:xlink="http://www.w3.org/1999/xlink" width="32" height="32"><path d="M514.6112 511.3344m-450.816 0a450.816 450.816 0 1 0 901.632 0 450.816 450.816 0 1 0-901.632 0Z" fill="#FF9552" p-id="9185"></path><path d="M245.3504 444.5696l255.0272 118.272c6.7584 3.1232 13.9264 4.7104 21.1456 4.7104 7.5776 0 15.1552-1.7408 22.1696-5.1712l248.7296-122.2144c17.2032-8.448 27.9552-25.6 28.1088-44.8a50.05824 50.05824 0 0 0-27.5456-45.1584l-246.3744-124.9792a50.4832 50.4832 0 0 0-45.2608-0.1024L244.0192 353.9968a49.8432 49.8432 0 0 0-27.7504 45.7216c0.3072 19.456 11.4176 36.6592 29.0816 44.8512zM790.528 607.3344l-268.7488 139.008-275.5072-134.5536a32.13312 32.13312 0 0 0-42.9568 14.7456 32.13312 32.13312 0 0 0 14.7456 42.9568l277.0944 135.3216c8.3968 4.096 17.5104 6.144 26.624 6.144 9.6256 0 19.2-2.2528 27.904-6.7584l270.2848-139.8272c15.7696-8.1408 21.9136-27.5456 13.7728-43.3152-8.0896-15.7184-27.4432-21.8624-43.2128-13.7216z" fill="#FFFFFF" p-id="9186"></path><path d="M218.0608 558.6944l277.0944 135.3216c8.3968 4.096 17.5104 6.144 26.624 6.144 9.6256 0 19.2-2.2528 27.904-6.7584l270.2848-139.8272c15.7696-8.1408 21.9136-27.5456 13.7728-43.3152-8.1408-15.7696-27.5456-21.9136-43.3152-13.7728l-268.7488 139.008L246.272 500.992a32.11776 32.11776 0 0 0-28.2112 57.7024z" fill="#FFFFFF" p-id="9187"></path></svg>