<?xml version="1.0" standalone="no"?><!DOCTYPE svg PUBLIC "-//W3C//DTD SVG 1.1//EN" "http://www.w3.org/Graphics/SVG/1.1/DTD/svg11.dtd"><svg t="1668517706864" class="icon" viewBox="0 0 1024 1024" version="1.1" xmlns="http://www.w3.org/2000/svg" p-id="1132" xmlns:xlink="http://www.w3.org/1999/xlink" width="128" height="128"><path d="M876.408595 191.598017a108.323967 108.323967 0 0 0-75.826777-31.481653h-115.771239v-16.587108a32.835702 32.835702 0 1 0-65.671405 0v16.587108h-231.880992v-16.587108a32.835702 32.835702 0 0 0-65.671405 0v16.587108H205.815537A107.477686 107.477686 0 0 0 98.507107 267.424793v520.632067a107.477686 107.477686 0 0 0 107.30843 107.308429h595.104794a108.323967 108.323967 0 0 0 75.826776-31.481653 106.259041 106.259041 0 0 0 31.481653-75.826776V267.424793a107.985455 107.985455 0 0 0-31.820165-75.826776z m-34.189752 207.846611v388.612232a41.603174 41.603174 0 0 1-41.637025 41.637024H205.477025a41.603174 41.603174 0 0 1-41.637025-41.637024V399.444628zM354.422479 294.505785a32.869554 32.869554 0 0 0 32.835703-32.835702V225.787769h231.880992v35.882314a32.835702 32.835702 0 0 0 65.671405 0V225.787769h115.771239a41.603174 41.603174 0 0 1 41.637025 41.637024v66.34843H164.178512V267.424793a41.603174 41.603174 0 0 1 41.637025-41.637024H321.586777v35.882314a32.429488 32.429488 0 0 0 32.835702 32.835702z" p-id="1133"></path><path d="M577.502149 548.05157h148.606942a32.835702 32.835702 0 0 0 0-65.671405h-148.606942a32.835702 32.835702 0 0 0 0 65.671405zM279.949752 548.05157h148.606942a32.835702 32.835702 0 1 0 0-65.671405H279.949752a32.835702 32.835702 0 0 0 0 65.671405zM279.949752 696.997025h148.606942a32.835702 32.835702 0 0 0 0-65.671405H279.949752a32.835702 32.835702 0 1 0 0 65.671405zM577.502149 696.997025h148.606942a32.835702 32.835702 0 0 0 0-65.671405h-148.606942a32.835702 32.835702 0 1 0 0 65.671405z" p-id="1134"></path></svg>