<?xml version="1.0" standalone="no"?><!DOCTYPE svg PUBLIC "-//W3C//DTD SVG 1.1//EN" "http://www.w3.org/Graphics/SVG/1.1/DTD/svg11.dtd"><svg t="1694573190634" class="icon" viewBox="0 0 1024 1024" version="1.1" xmlns="http://www.w3.org/2000/svg" p-id="29704" xmlns:xlink="http://www.w3.org/1999/xlink" width="200" height="200"><path d="M512.006144 63.997952C264.568832 63.997952 64 264.57088 64 511.987712c0 247.433216 200.568832 448.014336 448.006144 448.014336 247.425024 0 447.993856-200.58112 447.993856-448.014336 0-247.416832-200.568832-447.98976-447.993856-447.98976z m0 855.303168c-224.958464 0-407.297024-182.35904-407.297024-407.313408 0-224.946176 182.33856-407.297024 407.297024-407.297024 224.950272 0 407.30112 182.350848 407.30112 407.297024 0 224.954368-182.350848 407.313408-407.30112 407.313408zM308.224 552.96h407.552v-81.92H308.224v81.92z" p-id="29705" fill="#333333"></path></svg>