<?xml version="1.0" standalone="no"?><!DOCTYPE svg PUBLIC "-//W3C//DTD SVG 1.1//EN" "http://www.w3.org/Graphics/SVG/1.1/DTD/svg11.dtd"><svg t="1666847482323" class="icon" viewBox="0 0 1024 1024" version="1.1" xmlns="http://www.w3.org/2000/svg" p-id="5037" xmlns:xlink="http://www.w3.org/1999/xlink" width="200" height="200"><path d="M512 608c-160 0-288-128-288-288S352 32 512 32s288 128 288 288-128 288-288 288z m0-512c-121.6 0-224 102.4-224 224s102.4 224 224 224 224-102.4 224-224S633.6 96 512 96z" p-id="5038" fill="#666666"></path><path d="M896 992c-19.2 0-32-12.8-32-32 0-192-160-352-352-352S160 768 160 960c0 19.2-12.8 32-32 32s-32-12.8-32-32c0-230.4 185.6-416 416-416s416 185.6 416 416c0 19.2-12.8 32-32 32z" p-id="5039" fill="#666666"></path></svg>