<?xml version="1.0" standalone="no"?><!DOCTYPE svg PUBLIC "-//W3C//DTD SVG 1.1//EN" "http://www.w3.org/Graphics/SVG/1.1/DTD/svg11.dtd"><svg t="1660185391287" class="icon" viewBox="0 0 1024 1024" version="1.1" xmlns="http://www.w3.org/2000/svg" p-id="10442" xmlns:xlink="http://www.w3.org/1999/xlink" width="200" height="200"><defs><style type="text/css"></style></defs><path d="M384 443.392L151.722667 187.904A25.6 25.6 0 0 1 170.666667 145.066667h682.666666a25.6 25.6 0 0 1 18.944 42.837333L640 443.392V853.333333a25.6 25.6 0 0 1-38.7072 21.981867l-204.8-122.1632a25.6 25.6 0 0 1-12.4928-21.981867V443.392z m411.477333-247.125333H228.522667l200.021333 219.989333a25.6 25.6 0 0 1 6.656 17.237333v283.136l153.6 91.613867V433.493333a25.6 25.6 0 0 1 6.656-17.237333l200.021333-219.989333z" p-id="10443"></path></svg>