<?xml version="1.0" standalone="no"?><!DOCTYPE svg PUBLIC "-//W3C//DTD SVG 1.1//EN" "http://www.w3.org/Graphics/SVG/1.1/DTD/svg11.dtd"><svg t="1657283246225" class="icon" viewBox="0 0 1024 1024" version="1.1" xmlns="http://www.w3.org/2000/svg" p-id="7315" xmlns:xlink="http://www.w3.org/1999/xlink" width="200" height="200"><defs><style type="text/css"></style></defs><path d="M460.650667 192a64 64 0 0 1 62.485333 50.133333l3.093333 13.866667H789.333333a64 64 0 0 1 64 64v448a64 64 0 0 1-64 64H234.666667a64 64 0 0 1-64-64V256a64 64 0 0 1 64-64h225.984z m0 64H234.666667v512h554.666666V426.666667H498.602667l-37.952-170.666667zM746.666667 640v64H277.333333v-64h469.333334z m42.666666-320H540.437333l9.493334 42.666667H789.333333v-42.666667z" p-id="7316"></path></svg>