<?xml version="1.0" standalone="no"?><!DOCTYPE svg PUBLIC "-//W3C//DTD SVG 1.1//EN" "http://www.w3.org/Graphics/SVG/1.1/DTD/svg11.dtd"><svg t="1693895206503" class="icon" viewBox="0 0 1024 1024" version="1.1" xmlns="http://www.w3.org/2000/svg" p-id="1760" xmlns:xlink="http://www.w3.org/1999/xlink" width="200" height="200"><path d="M426.666667 128H213.333333a42.666667 42.666667 0 0 0-42.666666 42.666667v213.333333a42.666667 42.666667 0 0 0 42.666666 42.666667h213.333334a42.666667 42.666667 0 0 0 42.666666-42.666667V170.666667a42.666667 42.666667 0 0 0-42.666666-42.666667zM384 213.333333v128H256V213.333333h128zM426.666667 554.666667H213.333333a42.666667 42.666667 0 0 0-42.666666 42.666666v213.333334a42.666667 42.666667 0 0 0 42.666666 42.666666h213.333334a42.666667 42.666667 0 0 0 42.666666-42.666666v-213.333334a42.666667 42.666667 0 0 0-42.666666-42.666666z m-42.666667 85.333333v128H256v-128h128zM810.666667 554.666667h-213.333334a42.666667 42.666667 0 0 0-42.666666 42.666666v213.333334a42.666667 42.666667 0 0 0 42.666666 42.666666h213.333334a42.666667 42.666667 0 0 0 42.666666-42.666666v-213.333334a42.666667 42.666667 0 0 0-42.666666-42.666666z m-42.666667 85.333333v128h-128v-128h128z" fill="#ffffff" p-id="1761" data-spm-anchor-id="a313x.search_index.0.i5.3f473a81as2aJL" class="selected"></path><path d="M900.309333 277.034667l-144.810666-144.810667a42.666667 42.666667 0 0 0-60.330667 0l-144.810667 144.810667a42.666667 42.666667 0 0 0 0 60.330666l144.810667 144.810667a42.666667 42.666667 0 0 0 60.330667 0l144.810666-144.810667a42.666667 42.666667 0 0 0 0-60.330666z m-90.453333 30.122666L725.333333 391.68 640.853333 307.2 725.333333 222.72l84.48 84.48z" fill="#FF9C5F" p-id="1762"></path></svg>