<?xml version="1.0" standalone="no"?><!DOCTYPE svg PUBLIC "-//W3C//DTD SVG 1.1//EN" "http://www.w3.org/Graphics/SVG/1.1/DTD/svg11.dtd"><svg t="1698027313812" class="icon" viewBox="0 0 1024 1024" version="1.1" xmlns="http://www.w3.org/2000/svg" p-id="48044" data-spm-anchor-id="a313x.search_index.0.i23.42ff3a81URThGU" xmlns:xlink="http://www.w3.org/1999/xlink" width="200" height="200"><path d="M358.4 132.266667c6.4 0 10.666667 4.266667 10.666667 10.666666v270.933334c0 6.4-4.266667 10.666667-10.666667 10.666666H85.333333c-6.4 0-10.666667-4.266667-10.666666-10.666666V142.933333c0-6.4 4.266667-10.666667 10.666666-10.666666h273.066667m0-74.666667H85.333333c-46.933333 0-85.333333 38.4-85.333333 85.333333v270.933334c0 46.933333 38.4 85.333333 85.333333 85.333333h270.933334c46.933333 0 85.333333-38.4 85.333333-85.333333V142.933333c2.133333-46.933333-36.266667-85.333333-83.2-85.333333z" fill="#5d70ea" p-id="48045" data-spm-anchor-id="a313x.search_index.0.i26.42ff3a81URThGU" class=""></path><path d="M744.533333 74.666667c2.133333 0 4.266667 0 8.533334 2.133333l192 192c4.266667 4.266667 4.266667 10.666667 0 14.933333l-192 192c-2.133333 2.133333-6.4 2.133333-8.533334 2.133334s-4.266667 0-8.533333-2.133334l-192-192c-4.266667-4.266667-4.266667-10.666667 0-14.933333l192-192c4.266667 0 6.4-2.133333 8.533333-2.133333m0-74.666667c-21.333333 0-42.666667 8.533333-59.733333 25.6l-192 192c-34.133333 34.133333-34.133333 87.466667 0 121.6l192 192c17.066667 17.066667 38.4 25.6 59.733333 25.6s42.666667-8.533333 59.733334-25.6l192-192c34.133333-34.133333 34.133333-87.466667 0-121.6l-192-192C789.333333 8.533333 768 0 744.533333 0z" fill="#FF9C5F" p-id="48046" data-spm-anchor-id="a313x.search_index.0.i24.42ff3a81URThGU" class="selected"></path><path d="M358.4 654.933333c6.4 0 10.666667 4.266667 10.666667 10.666667V938.666667c0 6.4-4.266667 10.666667-10.666667 10.666666H85.333333c-6.4 0-10.666667-4.266667-10.666666-10.666666V665.6c0-6.4 4.266667-10.666667 10.666666-10.666667h273.066667m0-74.666666H85.333333c-46.933333 0-85.333333 38.4-85.333333 85.333333V938.666667c0 46.933333 38.4 85.333333 85.333333 85.333333h270.933334c46.933333 0 85.333333-38.4 85.333333-85.333333V665.6c2.133333-46.933333-36.266667-85.333333-83.2-85.333333zM881.066667 654.933333c6.4 0 10.666667 4.266667 10.666666 10.666667V938.666667c0 6.4-4.266667 10.666667-10.666666 10.666666H610.133333c-6.4 0-10.666667-4.266667-10.666666-10.666666V665.6c0-6.4 4.266667-10.666667 10.666666-10.666667h270.933334m0-74.666666H610.133333c-46.933333 0-85.333333 38.4-85.333333 85.333333V938.666667c0 46.933333 38.4 85.333333 85.333333 85.333333h270.933334c46.933333 0 85.333333-38.4 85.333333-85.333333V665.6c0-46.933333-38.4-85.333333-85.333333-85.333333z" fill="#5d70ea" p-id="48047" data-spm-anchor-id="a313x.search_index.0.i25.42ff3a81URThGU" class=""></path></svg>