<?xml version="1.0" standalone="no"?><!DOCTYPE svg PUBLIC "-//W3C//DTD SVG 1.1//EN" "http://www.w3.org/Graphics/SVG/1.1/DTD/svg11.dtd"><svg t="1668517718168" class="icon" viewBox="0 0 1024 1024" version="1.1" xmlns="http://www.w3.org/2000/svg" p-id="1289" xmlns:xlink="http://www.w3.org/1999/xlink" width="128" height="128"><path d="M894.688264 286.72H842.895868a178.362182 178.362182 0 0 0-351.037356 0H148.26843a33.85124 33.85124 0 0 0 0 67.702479h343.928595a178.86995 178.86995 0 0 0 350.698843 0h52.130909a33.85124 33.85124 0 1 0-0.338513-67.702479z m-227.141818 143.529256A111.032066 111.032066 0 1 1 778.578512 319.21719a111.099769 111.099769 0 0 1-111.032066 111.032066zM148.26843 762.329917h51.792396a178.362182 178.362182 0 0 0 351.037356 0h343.590082a33.85124 33.85124 0 0 0 0-67.702479H550.759669a178.86995 178.86995 0 0 0-350.698843 0H147.929917a33.85124 33.85124 0 1 0 0.338513 67.702479z m227.141818-143.529256a111.032066 111.032066 0 1 1-111.032066 111.032066 111.099769 111.099769 0 0 1 111.032066-111.032066z" p-id="1290"></path></svg>