<?xml version="1.0" standalone="no"?><!DOCTYPE svg PUBLIC "-//W3C//DTD SVG 1.1//EN" "http://www.w3.org/Graphics/SVG/1.1/DTD/svg11.dtd"><svg t="1668753275544" class="icon" viewBox="0 0 1024 1024" version="1.1" xmlns="http://www.w3.org/2000/svg" p-id="17175" xmlns:xlink="http://www.w3.org/1999/xlink" width="128" height="128"><path d="M843.84 690.368V256.32a31.488 31.488 0 0 0-9.152-22.848 32.192 32.192 0 0 0-22.912-9.472 32.512 32.512 0 0 0-32 32.32v434.048l-128.192-126.72a31.552 31.552 0 0 0-45.44 0 31.488 31.488 0 0 0 0 44.928l181.312 179.328a31.552 31.552 0 0 0 22.4 9.536 32.896 32.896 0 0 0 23.04-8.32l181.376-179.2a30.912 30.912 0 0 0 0-45.056 32.192 32.192 0 0 0-45.504 0l-124.928 125.44zM32 730.88h512.512c17.728 0 32.064 14.208 32.064 31.68a31.872 31.872 0 0 1-32 31.68H32a31.872 31.872 0 0 1-32-31.68c0-17.472 14.336-31.68 32-31.68z m0-253.44h320.32c17.728 0 32 14.208 32 31.68a31.872 31.872 0 0 1-32 31.68H32.064A31.872 31.872 0 0 1 0 509.12c0-17.472 14.336-31.68 32-31.68zM544.576 224H32.064c-17.728 0-32 14.208-32 31.68s14.272 31.68 32 31.68h512.512c17.728 0 32-14.208 32-31.68a31.872 31.872 0 0 0-32-31.68z" fill="#333333" p-id="17176"></path></svg>