<?xml version="1.0" standalone="no"?><!DOCTYPE svg PUBLIC "-//W3C//DTD SVG 1.1//EN" "http://www.w3.org/Graphics/SVG/1.1/DTD/svg11.dtd"><svg t="1666848864803" class="icon" viewBox="0 0 1024 1024" version="1.1" xmlns="http://www.w3.org/2000/svg" p-id="10049" width="128" height="128" xmlns:xlink="http://www.w3.org/1999/xlink"><path d="M512 542c-7.68 0-15.35-2.93-21.21-8.79-11.72-11.71-11.72-30.71 0-42.42l370-370c11.72-11.72 30.7-11.72 42.42 0 11.72 11.71 11.72 30.71 0 42.42l-370 370A29.893 29.893 0 0 1 512 542z" p-id="10050" fill="#666666"></path><path d="M782 912H242c-71.68 0-130-58.32-130-130V242c0-71.68 58.32-130 130-130h200c16.57 0 30 13.43 30 30s-13.43 30-30 30H242c-38.59 0-70 31.41-70 70v540c0 38.59 31.41 70 70 70h540c38.59 0 70-31.41 70-70V582c0-16.56 13.44-30 30-30s30 13.44 30 30v200c0 71.68-58.32 130-130 130zM882 452c-16.56 0-30-13.43-30-30V172H602c-16.56 0-30-13.43-30-30s13.44-30 30-30h280c16.56 0 30 13.43 30 30v280c0 16.57-13.44 30-30 30z" p-id="10051" fill="#666666"></path></svg>