<?xml version="1.0" standalone="no"?><!DOCTYPE svg PUBLIC "-//W3C//DTD SVG 1.1//EN" "http://www.w3.org/Graphics/SVG/1.1/DTD/svg11.dtd"><svg t="1659002605077" class="icon" viewBox="0 0 1024 1024" version="1.1" xmlns="http://www.w3.org/2000/svg" p-id="7659" xmlns:xlink="http://www.w3.org/1999/xlink" width="200" height="200"><defs><style type="text/css"></style></defs><path d="M930.909091 512c0 230.981818-187.927273 418.909091-418.909091 418.909091S93.090909 742.981818 93.090909 512 281.018182 93.090909 512 93.090909s418.909091 187.927273 418.909091 418.909091M23.272727 512c0 269.917091 218.810182 488.727273 488.727273 488.727273s488.727273-218.810182 488.727273-488.727273S781.917091 23.272727 512 23.272727 23.272727 242.082909 23.272727 512m348.392728-35.467636a34.932364 34.932364 0 0 0-1.373091 49.384727l186.181818 196.305454a34.909091 34.909091 0 0 0 50.664727-48.058181l-162.117818-170.938182 160.814545-152.040727c7.237818-6.865455 10.891636-16.104727 10.891637-25.367273a34.909091 34.909091 0 0 0-58.903273-25.344l-186.181818 176.058182z" fill="#5d70ea" p-id="7660"></path></svg>