<?xml version="1.0" standalone="no"?><!DOCTYPE svg PUBLIC "-//W3C//DTD SVG 1.1//EN" "http://www.w3.org/Graphics/SVG/1.1/DTD/svg11.dtd"><svg t="1657283205227" class="icon" viewBox="0 0 1024 1024" version="1.1" xmlns="http://www.w3.org/2000/svg" p-id="6889" xmlns:xlink="http://www.w3.org/1999/xlink" width="200" height="200"><defs><style type="text/css"></style></defs><path d="M704 512v384H320V512h384z m-64 64H384v256h256V576z m0-469.333333a64 64 0 0 1 64 64v64h106.666667a64 64 0 0 1 64 64v362.666666a64 64 0 0 1-64 64h-64v-64h64V298.666667H213.333333v362.666666h64v64h-64a64 64 0 0 1-64-64V298.666667a64 64 0 0 1 64-64h106.666667V170.666667a64 64 0 0 1 64-64h256zM426.666667 362.666667v64h-149.333334v-64h149.333334z m213.333333-192H384v64h256V170.666667z" p-id="6890"></path></svg>