<?xml version="1.0" standalone="no"?><!DOCTYPE svg PUBLIC "-//W3C//DTD SVG 1.1//EN" "http://www.w3.org/Graphics/SVG/1.1/DTD/svg11.dtd"><svg t="1720597489511" class="icon" viewBox="0 0 1024 1024" version="1.1" xmlns="http://www.w3.org/2000/svg" p-id="20544" xmlns:xlink="http://www.w3.org/1999/xlink" width="200" height="200"><path d="M408.551619 97.52381a73.142857 73.142857 0 0 1 51.736381 21.430857L539.306667 197.973333A73.142857 73.142857 0 0 0 591.067429 219.428571H804.571429a73.142857 73.142857 0 0 1 73.142857 73.142858v560.761904a73.142857 73.142857 0 0 1-73.142857 73.142857H219.428571a73.142857 73.142857 0 0 1-73.142857-73.142857V170.666667a73.142857 73.142857 0 0 1 73.142857-73.142857h189.123048z m0 73.142857H219.428571v682.666666h585.142858V292.571429h-213.504a146.285714 146.285714 0 0 1-98.499048-38.13181L487.619048 249.734095 408.551619 170.666667zM365.714286 633.904762v73.142857h-73.142857v-73.142857h73.142857z m365.714285 0v73.142857H414.47619v-73.142857h316.952381z m-365.714285-195.047619v73.142857h-73.142857v-73.142857h73.142857z m365.714285 0v73.142857H414.47619v-73.142857h316.952381z" p-id="20545" fill="#0d66e4"></path></svg>