<?xml version="1.0" standalone="no"?><!DOCTYPE svg PUBLIC "-//W3C//DTD SVG 1.1//EN" "http://www.w3.org/Graphics/SVG/1.1/DTD/svg11.dtd"><svg t="1669700798409" class="icon" viewBox="0 0 1024 1024" version="1.1" xmlns="http://www.w3.org/2000/svg" p-id="8874" xmlns:xlink="http://www.w3.org/1999/xlink" width="32" height="32"><path d="M508.416 513.1264m-450.816 0a450.816 450.816 0 1 0 901.632 0 450.816 450.816 0 1 0-901.632 0Z" fill="#C65EDB" p-id="8875"></path><path d="M508.416 188.7744c-178.944 0-324.0448 145.1008-324.0448 324.0448s145.1008 324.0448 324.0448 324.0448 324.0448-145.1008 324.0448-324.0448-145.0496-324.0448-324.0448-324.0448z m141.5168 345.2928l-198.7072 114.7392c-16.3328 9.4208-36.8128-2.3552-36.8128-21.248V398.08c0-18.8928 20.4288-30.72 36.8128-21.248l198.7072 114.7392c16.384 9.4208 16.384 33.0752 0 42.496z" fill="#FFFFFF" p-id="8876"></path></svg>