<?xml version="1.0" standalone="no"?><!DOCTYPE svg PUBLIC "-//W3C//DTD SVG 1.1//EN" "http://www.w3.org/Graphics/SVG/1.1/DTD/svg11.dtd"><svg t="1684309751982" class="icon" viewBox="0 0 1024 1024" version="1.1" xmlns="http://www.w3.org/2000/svg" p-id="29939" xmlns:xlink="http://www.w3.org/1999/xlink" width="200" height="200"><path d="M508.416 519.8336m-450.816 0a450.816 450.816 0 1 0 901.632 0 450.816 450.816 0 1 0-901.632 0Z" fill="#f76e5c" p-id="29940" data-spm-anchor-id="a313x.7781069.0.i5" class=""></path><path d="M546.5088 838.8608H477.5424a47.4624 47.4624 0 0 1-47.4624-47.4624 47.4624 47.4624 0 0 1 47.4624-47.4624h68.9664a47.4624 47.4624 0 0 1 47.4624 47.4624 47.4624 47.4624 0 0 1-47.4624 47.4624zM740.864 559.3088h-19.5584V402.7392c0-115.6096-93.696-209.3056-209.3056-209.3056s-209.3056 93.696-209.3056 209.3056v156.5696H283.136c-43.4176 0-78.592 35.1744-78.592 78.592s35.1744 78.592 78.592 78.592h457.7792c43.4176 0 78.592-35.1744 78.592-78.592-0.0512-43.4176-35.2256-78.592-78.6432-78.592z m-309.76-42.8032c0 18.0224-14.592 32.6144-32.6144 32.6144s-32.6144-14.592-32.6144-32.6144v-133.12c0-18.0224 14.592-32.6144 32.6144-32.6144s32.6144 14.592 32.6144 32.6144v133.12z" fill="#ffffff" p-id="29941" data-spm-anchor-id="a313x.7781069.0.i6" class="selected"></path></svg>