<?xml version="1.0" standalone="no"?><!DOCTYPE svg PUBLIC "-//W3C//DTD SVG 1.1//EN" "http://www.w3.org/Graphics/SVG/1.1/DTD/svg11.dtd"><svg t="1667556288283" class="icon" viewBox="0 0 1024 1024" version="1.1" xmlns="http://www.w3.org/2000/svg" p-id="5495" width="128" height="128" xmlns:xlink="http://www.w3.org/1999/xlink"><path d="M512 512m-448 0a448 448 0 1 0 896 0 448 448 0 1 0-896 0Z" fill="#0063FF" p-id="5496" data-spm-anchor-id="a313x.7781069.0.i23" class="selected"></path><path d="M736 533H288c-11.6 0-21-9.4-21-21s9.4-21 21-21h448c11.59 0 21 9.4 21 21s-9.41 21-21 21z" fill="#FFFFFF" p-id="5497" data-spm-anchor-id="a313x.7781069.0.i24" class=""></path><path d="M440.59 691.39c-5.37 0-10.75-2.05-14.85-6.15l-148.5-148.49c-13.64-13.66-13.64-35.85 0-49.49l148.5-148.5c8.2-8.2 21.49-8.2 29.7 0 8.2 8.2 8.2 21.5 0 29.7L311.89 512l143.55 143.54c8.2 8.2 8.2 21.49 0 29.7-4.1 4.1-9.47 6.15-14.85 6.15z" fill="#FFFFFF" p-id="5498" data-spm-anchor-id="a313x.7781069.0.i25" class=""></path></svg>