<?xml version="1.0" standalone="no"?><!DOCTYPE svg PUBLIC "-//W3C//DTD SVG 1.1//EN" "http://www.w3.org/Graphics/SVG/1.1/DTD/svg11.dtd"><svg t="1667550562592" class="icon" viewBox="0 0 1024 1024" version="1.1" xmlns="http://www.w3.org/2000/svg" p-id="3501" xmlns:xlink="http://www.w3.org/1999/xlink" width="128" height="128"><path d="M512 63c129 0 233.9 103.6 236 232.1V383h76c41.6 0 75.3 33.3 76 74.7V885c0 42-34 76-76 76H200c-42 0-76-34-76-76V459c0-42 34-76 76-76h76v-84-0.6 0.6c0-130.3 105.7-236 236-236z m312 392H200c-2.2 0-4 1.8-4 4v426c0 2.2 1.8 4 4 4h624c2.2 0 4-1.8 4-4V459c0-2.2-1.8-4-4-4z m-312 97.8c19.7 0 35.7 15.8 36 35.4v166.1c0 19.9-16.1 36-36 36-19.7 0-35.7-15.8-36-35.4V588.8c0-19.9 16.1-36 36-36z m0-417.8c-89.7 0-162.5 72-164 161.3V383h328v-84c0-90.6-73.4-164-164-164z" p-id="3502" fill="#707070"></path></svg>