<?xml version="1.0" standalone="no"?><!DOCTYPE svg PUBLIC "-//W3C//DTD SVG 1.1//EN" "http://www.w3.org/Graphics/SVG/1.1/DTD/svg11.dtd"><svg t="1659334345459" class="icon" viewBox="0 0 1024 1024" version="1.1" xmlns="http://www.w3.org/2000/svg" p-id="2634" xmlns:xlink="http://www.w3.org/1999/xlink" width="200" height="200"><defs><style type="text/css"></style></defs><path d="M458.752 952.832c-43.008 0-77.824-34.816-77.824-77.824v-609.28c0-43.008 34.816-77.824 77.824-77.824h363.52c43.008 0 77.824 34.816 77.824 77.824v609.28c0 43.008-34.816 77.824-77.824 77.824h-363.52z" fill="#27C18F" p-id="2635"></path><path d="M822.784 212.48c29.696 0 53.76 24.064 53.76 53.76v609.28c0 29.696-24.064 53.76-53.76 53.76h-363.52c-29.696 0-53.76-24.064-53.76-53.76V266.24c0-29.696 24.064-53.76 53.76-53.76h363.52m0-48.128h-363.52c-55.808 0-101.376 45.568-101.376 101.376v609.28c0 55.808 45.568 101.376 101.376 101.376h363.52c55.808 0 101.376-45.568 101.376-101.376v-609.28c0-55.808-45.568-101.376-101.376-101.376z" fill="#333333" p-id="2636"></path><path d="M253.952 952.832c-46.592 0-84.48-37.888-84.48-84.48V170.496c0-46.592 37.888-84.48 84.48-84.48h457.216c46.592 0 84.48 37.888 84.48 84.48v697.344c0 46.592-37.888 84.48-84.48 84.48H253.952z" fill="#FFBA40" p-id="2637" data-spm-anchor-id="a313x.7781069.0.i3" class=""></path><path d="M711.168 110.08c33.28 0 60.416 27.136 60.416 60.416v697.344c0 33.28-27.136 60.416-60.416 60.416H253.952c-33.28 0-60.416-27.136-60.416-60.416V170.496c0-33.28 27.136-60.416 60.416-60.416h457.216m0-48.128H253.952c-59.904 0-108.544 48.64-108.544 108.544v697.344c0 59.904 48.64 108.544 108.544 108.544h457.216c59.904 0 108.544-48.64 108.544-108.544V170.496c0-59.904-48.64-108.544-108.544-108.544z" fill="#333333" p-id="2638" data-spm-anchor-id="a313x.7781069.0.i4" class="selected"></path><path d="M147.456 968.704c-13.312 0-24.064-10.752-24.064-24.064v-190.976c0-6.144 2.56-12.288 7.168-16.896 4.608-4.608 10.752-7.168 16.896-7.168h320.512c13.312 0 24.064 10.752 24.064 24.064v190.976c0 6.144-2.56 12.288-7.168 16.896-4.608 4.608-10.752 7.168-16.896 7.168H147.456z" fill="#27C18F" p-id="2639"></path><path d="M467.968 753.664v190.976H147.456v-190.976h320.512m0-48.128H147.456c-12.8 0-25.088 5.12-33.792 13.824-9.216 9.216-13.824 20.992-13.824 33.792v190.976c0 26.624 21.504 48.128 48.128 48.128h320.512c12.8 0 25.088-5.12 33.792-13.824 9.216-9.216 13.824-20.992 13.824-33.792v-190.976c0-26.624-21.504-48.128-48.128-48.128z" fill="#333333" p-id="2640"></path><path d="M233.984 908.8h-3.072c-13.312-2.048-22.528-13.824-20.48-27.136l33.28-241.664c-30.72-30.208-46.08-53.76-46.08-70.656 0-50.176 49.664-91.648 110.592-91.648 28.672 0 55.296 8.704 75.776 24.576 22.016 16.896 34.816 41.472 34.816 66.56 0 16.896-15.36 40.448-46.08 70.656l31.232 241.664c1.536 13.312-7.68 25.088-20.48 27.136-13.312 1.536-25.088-7.68-27.136-20.48l-32.768-253.44c-1.024-7.68 1.536-15.36 7.68-20.48 17.92-16.896 36.352-37.888 39.936-46.08-1.024-13.312-10.24-22.528-15.872-27.136-11.776-9.216-29.184-14.848-46.592-14.848-33.28 0-61.44 18.944-62.464 41.472 3.584 8.192 22.016 29.184 39.936 46.08 5.632 5.12 8.704 13.312 7.168 20.992l-34.816 253.44c-2.56 12.288-12.8 20.992-24.576 20.992z m136.704-342.016z" fill="#333333" p-id="2641"></path><path d="M147.456 968.704c-6.144 0-12.288-2.56-16.896-7.168-4.608-4.608-7.168-10.752-7.168-16.896v-32.768c0-13.312 10.752-24.064 24.064-24.064h320.512c6.144 0 12.288 2.56 16.896 7.168 4.608 4.608 7.168 10.752 7.168 16.896v32.768c0 13.312-10.752 24.064-24.064 24.064H147.456z" fill="#FFBA40" p-id="2642"></path><path d="M468.48 911.872v32.768H147.968v-32.768h320.512m0-47.616H147.968c-26.624 0-48.128 21.504-48.128 48.128v32.768c0 12.8 5.12 25.088 13.824 33.792 9.216 9.216 20.992 13.824 33.792 13.824h320.512c26.624 0 48.128-21.504 48.128-48.128v-32.768c0-12.8-5.12-25.088-13.824-33.792-9.216-9.216-21.504-13.824-33.792-13.824z" fill="#333333" p-id="2643"></path><path d="M285.184 266.24h383.488" fill="#27C18F" p-id="2644"></path><path d="M668.672 289.792H285.184c-13.312 0-24.064-10.752-24.064-24.064s10.752-24.064 24.064-24.064h383.488c13.312 0 24.064 10.752 24.064 24.064s-10.752 24.064-24.064 24.064z" fill="#333333" p-id="2645"></path><path d="M285.184 375.808h285.184" fill="#27C18F" p-id="2646"></path><path d="M570.368 399.872H285.184c-13.312 0-24.064-10.752-24.064-24.064s10.752-24.064 24.064-24.064h284.672c13.312 0 24.064 10.752 24.064 24.064s-10.24 24.064-23.552 24.064z" fill="#333333" p-id="2647"></path></svg>