<?xml version="1.0" standalone="no"?><!DOCTYPE svg PUBLIC "-//W3C//DTD SVG 1.1//EN" "http://www.w3.org/Graphics/SVG/1.1/DTD/svg11.dtd"><svg t="1720597023510" class="icon" viewBox="0 0 1024 1024" version="1.1" xmlns="http://www.w3.org/2000/svg" p-id="19506" xmlns:xlink="http://www.w3.org/1999/xlink" width="200" height="200"><path d="M772.266667 641.536v103.619048h102.4v77.702095h-102.4V926.47619h-76.8l-0.024381-103.619047h-102.4v-77.726476h102.4v-103.619048h76.8zM528.579048 103.545905l307.029333 135.046095A70.144 70.144 0 0 1 877.714286 302.738286v286.963809h-77.580191v-216.966095l-258.31619 111.762286v430.104381l-13.238857 5.851428c-18.310095 8.045714-39.228952 8.045714-57.539048 0l-307.029333-135.070476A70.144 70.144 0 0 1 121.904762 721.261714V302.738286c0-27.745524 16.505905-52.906667 42.105905-64.146286l307.029333-135.070476a71.484952 71.484952 0 0 1 57.539048 0zM199.43619 370.151619v346.502095l265.532953 116.784762v-348.403809L199.460571 370.151619zM499.809524 175.225905L225.475048 295.887238l277.333333 119.954286 274.261333-118.662095L499.809524 175.225905z" p-id="19507" fill="#333333"></path></svg>