<?xml version="1.0" standalone="no"?><!DOCTYPE svg PUBLIC "-//W3C//DTD SVG 1.1//EN" "http://www.w3.org/Graphics/SVG/1.1/DTD/svg11.dtd"><svg t="1722824619341" class="icon" viewBox="0 0 1024 1024" version="1.1" xmlns="http://www.w3.org/2000/svg" p-id="2042" xmlns:xlink="http://www.w3.org/1999/xlink" width="200" height="200"><path d="M950.857143 877.714286v73.142857h-219.428572v-73.142857h219.428572z m-268.190476 0v73.142857h-73.142857v-73.142857h73.142857zM544.402286 110.689524l295.253333 131.145143a73.142857 73.142857 0 0 1 43.471238 66.852571V585.142857h-73.142857v-207.603809L562.785524 487.375238v393.020952h-0.097524v24.746667l-18.285714 8.118857a73.142857 73.142857 0 0 1-59.367619 0L189.732571 782.165333A73.142857 73.142857 0 0 1 146.285714 715.312762V308.687238a73.142857 73.142857 0 0 1 43.446857-66.852571l295.302096-131.120762a73.142857 73.142857 0 0 1 59.367619 0zM219.428571 374.125714v341.211429l270.214096 120.003047V485.888L219.428571 374.101333zM950.857143 755.809524v73.142857h-219.428572v-73.142857h219.428572z m-268.190476 0v73.142857h-73.142857v-73.142857h73.142857z m268.190476-121.904762v73.142857h-219.428572v-73.142857h219.428572z m-268.190476 0v73.142857h-73.142857v-73.142857h73.142857zM514.706286 177.566476L235.446857 301.568l292.815238 121.173333 269.141334-119.637333-282.697143-125.561905z" p-id="2043" fill="#A5A9B0"></path></svg>