<?xml version="1.0" standalone="no"?><!DOCTYPE svg PUBLIC "-//W3C//DTD SVG 1.1//EN" "http://www.w3.org/Graphics/SVG/1.1/DTD/svg11.dtd"><svg t="1667550552263" class="icon" viewBox="0 0 1024 1024" version="1.1" xmlns="http://www.w3.org/2000/svg" p-id="3238" xmlns:xlink="http://www.w3.org/1999/xlink" width="128" height="128"><path d="M512 552.8c-19.9 0-36 16.1-36 36v166.1c0.3 19.6 16.3 35.4 36 35.4 19.9 0 36-16.1 36-36V588.2c-0.3-19.7-16.3-35.4-36-35.4z" p-id="3239" fill="#707070"></path><path d="M900 457.7c-0.7-41.4-34.4-74.7-76-74.7H348v-86.7C349.5 207 422.3 135 512 135c50.1 0 94.9 22.4 124.9 57.8l64.7-34.3C658.6 100.6 589.7 63 512 63c-130.3 0-236 105.7-236 236v84h-76c-42 0-76 34-76 76v426c0 42 34 76 76 76h624c42 0 76-34 76-76V457.7zM828 885c0 2.2-1.8 4-4 4H200c-2.2 0-4-1.8-4-4V459c0-2.2 1.8-4 4-4h624c2.2 0 4 1.8 4 4v426z" p-id="3240" fill="#707070"></path></svg>