<?xml version="1.0" standalone="no"?><!DOCTYPE svg PUBLIC "-//W3C//DTD SVG 1.1//EN" "http://www.w3.org/Graphics/SVG/1.1/DTD/svg11.dtd"><svg t="1659002572124" class="icon" viewBox="0 0 1024 1024" version="1.1" xmlns="http://www.w3.org/2000/svg" p-id="17377" xmlns:xlink="http://www.w3.org/1999/xlink" width="200" height="200"><defs><style type="text/css"></style></defs><path d="M93.090909 512c0-230.981818 187.927273-418.909091 418.909091-418.909091s418.909091 187.927273 418.909091 418.909091-187.927273 418.909091-418.909091 418.909091S93.090909 742.981818 93.090909 512m907.636364 0c0-269.917091-218.810182-488.727273-488.727273-488.727273S23.272727 242.082909 23.272727 512s218.810182 488.727273 488.727273 488.727273 488.727273-218.810182 488.727273-488.727273m-348.392728 35.467636a34.932364 34.932364 0 0 0 1.373091-49.384727l-186.181818-196.305454a34.909091 34.909091 0 0 0-50.664727 48.058181l162.117818 170.938182-160.814545 152.040727A34.792727 34.792727 0 0 0 407.272727 698.181818a34.909091 34.909091 0 0 0 58.903273 25.344l186.181818-176.058182z" fill="var(--side-select)" p-id="17378"></path></svg>