<?xml version="1.0" standalone="no"?><!DOCTYPE svg PUBLIC "-//W3C//DTD SVG 1.1//EN" "http://www.w3.org/Graphics/SVG/1.1/DTD/svg11.dtd"><svg t="1693547981035" class="icon" viewBox="0 0 1152 1024" version="1.1" xmlns="http://www.w3.org/2000/svg" p-id="6336" xmlns:xlink="http://www.w3.org/1999/xlink" width="225" height="200"><path d="M368.482685 596.225526c125.720574 0 227.637545-101.916971 227.637545-227.637545s-101.916971-227.637545-227.637545-227.637545-227.637545 101.916971-227.637545 227.637545 101.916971 227.637545 227.637545 227.637545z m215.052831-51.100076l227.344348 227.344348c9.877648 9.877648 9.877648 25.892405 0 35.770053-9.876738 9.877648-25.891494 9.877648-35.769143 0L548.014953 581.144083c-48.455838 40.968384-111.109886 65.667968-179.532268 65.667969-153.658074 0-278.22316-124.565086-278.22316-278.224071S214.824611 90.364821 368.482685 90.364821c153.658985 0 278.224071 124.564175 278.224071 278.22316 0 67.021046-23.697979 128.507768-63.17124 176.537469z" fill="#757575" p-id="6337"></path></svg>