<?xml version="1.0" standalone="no"?><!DOCTYPE svg PUBLIC "-//W3C//DTD SVG 1.1//EN" "http://www.w3.org/Graphics/SVG/1.1/DTD/svg11.dtd"><svg t="1721820289797" class="icon" viewBox="0 0 1024 1024" version="1.1" xmlns="http://www.w3.org/2000/svg" p-id="1236" xmlns:xlink="http://www.w3.org/1999/xlink" width="200" height="200"><path d="M512 512m-512 0a512 512 0 1 0 1024 0 512 512 0 1 0-1024 0Z" fill="#1990FF" opacity=".2" p-id="1237"></path><path d="M512 511.522133m-409.6 0a409.6 409.6 0 1 0 819.2 0 409.6 409.6 0 1 0-819.2 0Z" fill="#1990FF" p-id="1238"></path><path d="M47.786667 74.615467m-47.786667 0a47.786667 47.786667 0 1 0 95.573333 0 47.786667 47.786667 0 1 0-95.573333 0Z" fill="#1990FF" p-id="1239"></path><path d="M1003.52 921.122133m-20.48 0a20.48 20.48 0 1 0 40.96 0 20.48 20.48 0 1 0-40.96 0Z" fill="#1990FF" p-id="1240"></path><path d="M306.039467 276.343467m50.449066 0l499.848534 0q50.449067 0 50.449066 50.449066l0 336.008534q0 50.449067-50.449066 50.449066l-499.848534 0q-50.449067 0-50.449066-50.449066l0-336.008534q0-50.449067 50.449066-50.449066Z" fill="#FFFFFF" p-id="1241"></path><path d="M528.657067 338.670933m20.48 0l275.182933 0q20.48 0 20.48 20.48l0 0q0 20.48-20.48 20.48l-275.182933 0q-20.48 0-20.48-20.48l0 0q0-20.48 20.48-20.48Z" fill="#70CAFF" opacity=".2" p-id="1242"></path><path d="M583.2704 429.124267m20.48 0l222.8224 0q20.48 0 20.48 20.48l0 0q0 20.48-20.48 20.48l-222.8224 0q-20.48 0-20.48-20.48l0 0q0-20.48 20.48-20.48Z" fill="#70CAFF" opacity=".2" p-id="1243"></path><path d="M644.7104 519.5776m20.48 0l161.3824 0q20.48 0 20.48 20.48l0 0q0 20.48-20.48 20.48l-161.3824 0q-20.48 0-20.48-20.48l0 0q0-20.48 20.48-20.48Z" fill="#70CAFF" opacity=".2" p-id="1244"></path><path d="M644.7104 610.030933m20.48 0l161.3824 0q20.48 0 20.48 20.48l0 0q0 20.48-20.48 20.48l-161.3824 0q-20.48 0-20.48-20.48l0 0q0-20.48 20.48-20.48Z" fill="#70CAFF" opacity=".2" p-id="1245"></path><path d="M437.6576 371.5072A132.369067 132.369067 0 1 0 572.757333 503.876267a133.7344 133.7344 0 0 0-135.099733-132.369067z" fill="#70CAFF" p-id="1246"></path><path d="M572.484267 624.776533a200.635733 200.635733 0 0 1-269.5168 0c-63.146667 31.812267-104.6528 88.746667-104.6528 165.4784H678.570667c0-77.141333-42.257067-133.870933-106.0864-165.6832z" fill="#5BC1F4" p-id="1247"></path><path d="M281.531733 554.734933V432.469333h-5.051733a178.244267 178.244267 0 0 1 322.286933 0h-5.051733v122.2656a61.44 61.44 0 0 0 62.395733-61.44 60.962133 60.962133 0 0 0-31.9488-53.384533 198.8608 198.8608 0 0 0-373.077333 0 60.893867 60.893867 0 0 0-31.9488 53.6576 61.44 61.44 0 0 0 62.395733 61.44z" fill="#FF9600" p-id="1248"></path></svg>