<?xml version="1.0" standalone="no"?><!DOCTYPE svg PUBLIC "-//W3C//DTD SVG 1.1//EN" "http://www.w3.org/Graphics/SVG/1.1/DTD/svg11.dtd"><svg t="1721820378616" class="icon" viewBox="0 0 1025 1024" version="1.1" xmlns="http://www.w3.org/2000/svg" p-id="1940" xmlns:xlink="http://www.w3.org/1999/xlink" width="200.1953125" height="200"><path d="M512.8192 512m-512 0a512 512 0 1 0 1024 0 512 512 0 1 0-1024 0Z" fill="#1990FF" opacity=".2" p-id="1941"></path><path d="M512.8192 512m-409.6 0a409.6 409.6 0 1 0 819.2 0 409.6 409.6 0 1 0-819.2 0Z" fill="#1990FF" p-id="1942"></path><path d="M47.786667 75.9808m-47.786667 0a47.786667 47.786667 0 1 0 95.573333 0 47.786667 47.786667 0 1 0-95.573333 0Z" fill="#1990FF" p-id="1943"></path><path d="M1005.090133 920.712533m-20.48 0a20.48 20.48 0 1 0 40.96 0 20.48 20.48 0 1 0-40.96 0Z" fill="#1990FF" p-id="1944"></path><path d="M343.2448 202.5472h475.682133a62.532267 62.532267 0 0 1 62.532267 62.532267v592.827733H280.712533V265.079467a62.532267 62.532267 0 0 1 62.532267-62.532267z" fill="#FFFFFF" p-id="1945"></path><path d="M342.152533 298.120533m19.182934 0l439.5008 0q19.182933 0 19.182933 19.182934l0 2.594133q0 19.182933-19.182933 19.182933l-439.5008 0q-19.182933 0-19.182934-19.182933l0-2.594133q0-19.182933 19.182934-19.182934Z" fill="#70CAFF" opacity=".2" p-id="1946"></path><path d="M345.565867 388.573867m19.182933 0l439.5008 0q19.182933 0 19.182933 19.182933l0 2.594133q0 19.182933-19.182933 19.182934l-439.5008 0q-19.182933 0-19.182933-19.182934l0-2.594133q0-19.182933 19.182933-19.182933Z" fill="#70CAFF" opacity=".2" p-id="1947"></path><path d="M345.565867 479.0272m19.182933 0l439.5008 0q19.182933 0 19.182933 19.182933l0 2.594134q0 19.182933-19.182933 19.182933l-439.5008 0q-19.182933 0-19.182933-19.182933l0-2.594134q0-19.182933 19.182933-19.182933Z" fill="#70CAFF" opacity=".2" p-id="1948"></path><path d="M345.565867 569.480533m19.182933 0l439.5008 0q19.182933 0 19.182933 19.182934l0 2.594133q0 19.182933-19.182933 19.182933l-439.5008 0q-19.182933 0-19.182933-19.182933l0-2.594133q0-19.182933 19.182933-19.182934Z" fill="#70CAFF" opacity=".2" p-id="1949"></path><path d="M345.565867 659.933867m15.018666 0l263.509334 0q15.018667 0 15.018666 15.018666l0 10.922667q0 15.018667-15.018666 15.018667l-263.509334 0q-15.018667 0-15.018666-15.018667l0-10.922667q0-15.018667 15.018666-15.018666Z" fill="#70CAFF" opacity=".2" p-id="1950"></path><path d="M228.078933 458.3424a3.754667 3.754667 0 0 1-3.754666-3.754667v-7.645866a4.027733 4.027733 0 0 1 3.822933-3.618134 3.754667 3.754667 0 0 1 3.618133 3.822934v7.441066a3.754667 3.754667 0 0 1-3.6864 3.754667zM228.9664 435.950933a3.822933 3.822933 0 0 1-3.4816-4.027733c0.4096-5.051733 0.955733-10.0352 1.570133-15.018667a3.754667 3.754667 0 1 1 7.441067 0.955734c-0.6144 4.846933-1.160533 9.693867-1.501867 14.609066a3.822933 3.822933 0 0 1-4.027733 3.4816z m567.637333-0.546133a3.6864 3.6864 0 0 1-3.754666-3.413333c-0.4096-4.9152-0.887467-9.8304-1.570134-14.609067a3.822933 3.822933 0 0 1 3.2768-4.232533 3.754667 3.754667 0 0 1 4.164267 3.208533c0.682667 4.983467 1.2288 9.966933 1.6384 15.018667a3.822933 3.822933 0 0 1-3.4816 4.027733zM232.925867 406.391467h-0.682667a3.822933 3.822933 0 0 1-3.003733-4.369067c0.955733-4.9152 1.979733-9.8304 3.140266-14.7456A3.754667 3.754667 0 1 1 239.752533 389.12q-1.774933 6.826667-3.072 14.336a3.754667 3.754667 0 0 1-3.754666 2.935467z m559.786666-0.477867a3.6864 3.6864 0 0 1-3.618133-3.072c-0.955733-4.846933-1.979733-9.6256-3.072-14.404267a3.6864 3.6864 0 1 1 7.236267-1.706666c1.2288 4.846933 2.2528 9.762133 3.140266 14.7456a3.754667 3.754667 0 0 1-2.935466 4.369066z m-552.96-28.4672h-1.092266a3.822933 3.822933 0 0 1-2.525867-4.7104q2.116267-7.236267 4.7104-14.336a3.754667 3.754667 0 0 1 4.778667-2.321067 3.754667 3.754667 0 0 1 2.2528 4.778667c-1.6384 4.642133-3.140267 9.284267-4.573867 14.062933a3.754667 3.754667 0 0 1-3.549867 2.525867z m546.133334-0.477867a3.754667 3.754667 0 0 1-3.549867-2.730666c-1.4336-4.7104-2.935467-9.352533-4.573867-13.653334a3.754667 3.754667 0 0 1 2.2528-4.778666 3.618133 3.618133 0 0 1 4.778667 2.2528q2.594133 6.826667 4.7104 14.336a3.6864 3.6864 0 0 1-2.525867 4.642133 3.072 3.072 0 0 1-1.092266-0.068267z m-535.9616-27.306666a3.549867 3.549867 0 0 1-1.4336 0 3.754667 3.754667 0 0 1-2.048-4.9152c1.911467-4.642133 3.959467-9.284267 6.144-13.653334a3.754667 3.754667 0 1 1 6.826666 3.208534c-2.116267 4.437333-4.096 8.942933-6.007466 13.653333a3.6864 3.6864 0 0 1-3.6864 1.365333z m525.994666-0.4096a3.822933 3.822933 0 0 1-3.4816-2.321067c-1.8432-4.5056-3.8912-8.942933-5.9392-13.653333a3.6864 3.6864 0 1 1 6.826667-3.208534c2.184533 4.5056 4.232533 9.079467 6.212267 13.653334a3.822933 3.822933 0 0 1-2.048 4.9152 3.549867 3.549867 0 0 1-1.774934 0.273066z m-513.365333-26.8288a3.2768 3.2768 0 0 1-1.774933-0.477867 3.6864 3.6864 0 0 1-1.501867-5.051733q3.618133-6.826667 7.5776-13.1072a3.6864 3.6864 0 0 1 5.12-1.2288 3.754667 3.754667 0 0 1 1.2288 5.188266q-3.754667 6.212267-7.3728 12.6976a3.754667 3.754667 0 0 1-3.2768 1.979734z m500.3264 0a3.6864 3.6864 0 0 1-3.2768-1.911467q-3.618133-6.417067-7.3728-12.6976a3.754667 3.754667 0 0 1 1.2288-5.188267 3.6864 3.6864 0 0 1 5.12 1.2288c2.6624 4.3008 5.188267 8.6016 7.5776 13.038934a3.822933 3.822933 0 0 1-1.501867 5.12 3.959467 3.959467 0 0 1-1.774933 0.068266z m-484.693333-25.053867a3.413333 3.413333 0 0 1-2.116267-0.682667 3.6864 3.6864 0 0 1-0.955733-5.188266c2.798933-4.164267 5.802667-8.260267 8.874666-12.219734a3.6864 3.6864 0 0 1 5.256534-0.682666 3.754667 3.754667 0 0 1 0.682666 5.256533c-3.003733 3.8912-5.870933 7.850667-8.669866 11.8784a3.8912 3.8912 0 0 1-3.072 1.297067z m469.060266 0a3.6864 3.6864 0 0 1-3.072-1.6384c-2.798933-4.027733-5.666133-7.9872-8.669866-11.810133a3.754667 3.754667 0 0 1 0.682666-5.256534 3.6864 3.6864 0 0 1 5.256534 0.682667c3.072 3.959467 6.007467 8.055467 8.874666 12.151467a3.6864 3.6864 0 0 1-0.955733 5.188266 3.413333 3.413333 0 0 1-2.116267 0.068267z m-450.901333-23.9616a3.822933 3.822933 0 0 1-2.8672-6.212267c3.2768-3.822933 6.826667-7.5776 10.103467-11.195733a3.754667 3.754667 0 1 1 5.461333 5.188267c-3.413333 3.549867-6.826667 7.168-9.898667 10.8544a3.618133 3.618133 0 0 1-2.798933 1.365333z m432.7424 0a3.754667 3.754667 0 0 1-2.798933-1.297067c-3.208533-3.754667-6.826667-7.3728-9.898667-10.922666a3.754667 3.754667 0 1 1 5.461333-5.188267c3.413333 3.6864 6.826667 7.3728 10.103467 11.195733a3.754667 3.754667 0 0 1-0.4096 5.3248 4.027733 4.027733 0 0 1-2.4576 0.546134z m-412.2624-21.640533a3.6864 3.6864 0 0 1-2.730667-1.160534 3.754667 3.754667 0 0 1 0-5.256533c3.6864-3.4816 7.441067-6.826667 11.264-10.103467a3.754667 3.754667 0 0 1 4.846934 5.666134c-3.754667 3.208533-7.3728 6.826667-10.922667 9.8304a3.754667 3.754667 0 0 1-2.4576 1.024z m391.7824 0a3.6864 3.6864 0 0 1-2.594133-1.024c-3.549867-3.413333-7.236267-6.826667-10.922667-9.8304a3.822933 3.822933 0 0 1-0.477867-5.3248 3.754667 3.754667 0 0 1 5.3248-0.4096c3.822933 3.2768 7.5776 6.826667 11.195734 10.103466a3.754667 3.754667 0 0 1 0 5.3248 3.6864 3.6864 0 0 1-2.525867 1.024z m-369.117867-19.319467a3.754667 3.754667 0 0 1-2.321066-6.826667c4.027733-3.003733 8.055467-6.007467 12.219733-8.874666a3.754667 3.754667 0 0 1 4.232533 6.212266q-6.007467 4.164267-11.8784 8.6016a3.6864 3.6864 0 0 1-2.2528 0.887467z m346.385067 0a3.549867 3.549867 0 0 1-2.2528-0.750933c-3.8912-3.003733-7.850667-5.870933-11.8784-8.669867a3.6864 3.6864 0 0 1-0.955733-5.188267 3.754667 3.754667 0 0 1 5.188266-0.955733c4.164267 2.8672 8.192 5.802667 12.219734 8.874667a3.754667 3.754667 0 0 1-2.321067 6.826666zM363.997867 215.517867a3.6864 3.6864 0 0 1-3.208534-1.774934 3.6864 3.6864 0 0 1 1.2288-5.12c4.3008-2.6624 8.669867-5.188267 13.038934-7.5776a3.754667 3.754667 0 0 1 3.618133 6.826667c-4.3008 2.321067-8.533333 4.778667-12.765867 7.304533a3.140267 3.140267 0 0 1-1.911466 0.341334z m297.3696 0a3.4816 3.4816 0 0 1-1.979734-0.546134c-4.164267-2.525867-8.3968-4.983467-12.765866-7.3728a3.754667 3.754667 0 0 1-1.501867-5.051733 3.754667 3.754667 0 0 1 5.12-1.501867c4.437333 2.389333 8.738133 4.9152 13.038933 7.509334a3.754667 3.754667 0 0 1 1.2288 5.188266 3.618133 3.618133 0 0 1-3.140266 1.6384zM389.9392 201.3184a3.618133 3.618133 0 0 1-3.345067-2.116267 3.6864 3.6864 0 0 1 1.774934-4.983466q6.826667-3.2768 13.653333-6.144a3.754667 3.754667 0 0 1 4.9152 2.048 3.6864 3.6864 0 0 1-2.048 4.846933c-4.5056 1.911467-8.942933 3.8912-13.653333 6.007467a3.345067 3.345067 0 0 1-1.297067 0.341333z m245.077333 0a3.618133 3.618133 0 0 1-1.6384-0.4096c-4.437333-2.116267-8.874667-4.096-13.653333-5.9392a3.754667 3.754667 0 0 1 2.8672-6.826667c4.642133 1.979733 9.284267 4.027733 13.653333 6.144a3.754667 3.754667 0 0 1-1.570133 6.826667z m-217.429333-11.400533a3.754667 3.754667 0 0 1-1.297067-7.236267q7.168-2.525867 14.336-4.7104a3.822933 3.822933 0 0 1 4.7104 2.525867 3.754667 3.754667 0 0 1-2.525866 4.642133c-4.7104 1.4336-9.4208 2.935467-13.994667 4.573867a3.8912 3.8912 0 0 1-1.2288 0.2048z m189.986133 0a3.8912 3.8912 0 0 1-1.2288 0c-4.642133-1.6384-9.284267-3.140267-14.062933-4.573867a3.754667 3.754667 0 0 1 2.4576-7.509333c4.846933 1.4336 9.693867 3.003733 14.404267 4.642133a3.754667 3.754667 0 0 1-1.2288 7.304533z m-161.450666-8.465067a3.822933 3.822933 0 0 1-3.6864-2.8672 3.822933 3.822933 0 0 1 2.798933-4.5056c4.846933-1.160533 9.8304-2.2528 14.7456-3.140267a3.754667 3.754667 0 0 1 1.365333 7.3728q-7.236267 1.297067-14.336 3.072z m132.846933 0h-0.887467c-4.7104-1.160533-9.557333-2.116267-14.336-3.003733a3.8912 3.8912 0 0 1-3.072-4.369067 3.754667 3.754667 0 0 1 4.369067-3.003733c4.983467 0.887467 9.898667 1.911467 14.813867 3.072a3.754667 3.754667 0 0 1 2.730666 4.5056 3.618133 3.618133 0 0 1-3.618133 2.6624z m-103.560533-5.256533a3.822933 3.822933 0 0 1-3.754667-3.2768 3.6864 3.6864 0 0 1 3.2768-4.164267c4.9152-0.682667 9.966933-1.2288 14.9504-1.6384a3.754667 3.754667 0 0 1 0.6144 7.509333c-4.9152 0.4096-9.762133 0.887467-14.609067 1.501867z m74.274133 0h-0.477867c-4.846933-0.6144-9.693867-1.092267-14.609066-1.501867a3.6864 3.6864 0 0 1-3.4816-3.959467 3.754667 3.754667 0 0 1 4.027733-3.4816c5.051733 0.4096 10.0352 0.887467 15.018667 1.570134a3.754667 3.754667 0 0 1-0.477867 7.441066z m-44.578133-2.2528a3.754667 3.754667 0 0 1-3.754667-3.6864 3.754667 3.754667 0 0 1 3.618133-3.822934h15.086934a3.6864 3.6864 0 0 1 3.6864 3.822934 3.822933 3.822933 0 0 1-3.822934 3.618133h-14.7456zM797.4912 458.3424a3.754667 3.754667 0 0 1-3.754667-3.754667V447.146667a3.754667 3.754667 0 0 1 3.618134-3.822934 3.8912 3.8912 0 0 1 3.8912 3.6864v7.5776a3.754667 3.754667 0 0 1-3.754667 3.754667z" fill="#5BC1F4" p-id="1951"></path><path d="M775.031467 454.587733A262.280533 262.280533 0 1 0 424.072533 701.2352l-64.443733 111.684267a29.969067 29.969067 0 0 0 25.941333 44.987733h254.7712a29.969067 29.969067 0 0 0 25.941334-44.987733L601.565867 701.2352a262.3488 262.3488 0 0 0 173.4656-246.647467z" fill="#5BC1F4" p-id="1952"></path><path d="M512.8192 454.587733m-224.733867 0a224.733867 224.733867 0 1 0 449.467734 0 224.733867 224.733867 0 1 0-449.467734 0Z" fill="#FFFFFF" p-id="1953"></path><path d="M794.897067 544.9728a16.247467 16.247467 0 0 1-3.959467-0.546133 15.018667 15.018667 0 0 1-10.513067-18.432 273.066667 273.066667 0 0 0 2.594134-132.846934 14.9504 14.9504 0 1 1 29.149866-6.826666 302.967467 302.967467 0 0 1-2.798933 147.592533 15.018667 15.018667 0 0 1-14.472533 11.0592zM234.9056 558.8992a14.882133 14.882133 0 0 1-14.199467-10.24A298.530133 298.530133 0 0 1 205.6192 454.587733a305.698133 305.698133 0 0 1 4.778667-53.6576 14.9504 14.9504 0 1 1 29.4912 5.3248A272.520533 272.520533 0 0 0 249.105067 539.306667 14.9504 14.9504 0 0 1 239.752533 558.148267a14.1312 14.1312 0 0 1-4.846933 0.750933z" fill="#5BC1F4" p-id="1954"></path><path d="M512.8192 645.597867a191.146667 191.146667 0 1 1 191.146667-191.146667 191.146667 191.146667 0 0 1-191.146667 191.146667z m0-374.5792a183.569067 183.569067 0 1 0 183.5008 183.569066A183.773867 183.773867 0 0 0 512.8192 271.018667z" fill="#70CAFF" p-id="1955"></path><path d="M521.966933 537.053867h-1.706666a21.504 21.504 0 0 1-19.319467-16.5888l-24.439467-104.584534-30.9248 61.44a21.640533 21.640533 0 0 1-18.909866 11.810134l-61.0304 1.160533a15.018667 15.018667 0 0 1 0-29.969067l55.978666-1.024 39.048534-77.2096a21.640533 21.640533 0 0 1 40.3456 4.846934l23.688533 101.307733 14.5408-35.771733a21.504 21.504 0 0 1 19.592533-13.653334l102.4-1.911466a15.018667 15.018667 0 0 1 0.546134 29.969066l-96.529067 1.774934-23.278933 54.954666a21.504 21.504 0 0 1-20.002134 13.448534z" fill="#FF9600" p-id="1956"></path></svg>