<?xml version="1.0" standalone="no"?><!DOCTYPE svg PUBLIC "-//W3C//DTD SVG 1.1//EN" "http://www.w3.org/Graphics/SVG/1.1/DTD/svg11.dtd"><svg t="1721820319452" class="icon" viewBox="0 0 1024 1024" version="1.1" xmlns="http://www.w3.org/2000/svg" p-id="1588" xmlns:xlink="http://www.w3.org/1999/xlink" width="200" height="200"><path d="M512 512m-512 0a512 512 0 1 0 1024 0 512 512 0 1 0-1024 0Z" fill="#1990FF" opacity=".2" p-id="1589"></path><path d="M512 512m-409.6 0a409.6 409.6 0 1 0 819.2 0 409.6 409.6 0 1 0-819.2 0Z" fill="#1990FF" p-id="1590"></path><path d="M47.786667 75.093333m-47.786667 0a47.786667 47.786667 0 1 0 95.573333 0 47.786667 47.786667 0 1 0-95.573333 0Z" fill="#1990FF" p-id="1591"></path><path d="M1003.52 921.6m-20.48 0a20.48 20.48 0 1 0 40.96 0 20.48 20.48 0 1 0-40.96 0Z" fill="#1990FF" p-id="1592"></path><path d="M218.453333 197.973333m56.593067 0l473.9072 0q56.593067 0 56.593067 56.593067l0 357.853867q0 56.593067-56.593067 56.593066l-473.9072 0q-56.593067 0-56.593067-56.593066l0-357.853867q0-56.593067 56.593067-56.593067Z" fill="#FFFFFF" p-id="1593"></path><path d="M767.044267 826.026667H256.955733c-40.1408 0-72.635733-28.672-72.635733-64.1024V464.759467l313.344 84.718933L839.68 464.759467v297.1648c0 35.4304-32.494933 64.1024-72.635733 64.1024z" fill="#70CAFF" p-id="1594"></path><path d="M300.373333 280.439467m13.653334 0l395.946666 0q13.653333 0 13.653334 13.653333l0 0q0 13.653333-13.653334 13.653333l-395.946666 0q-13.653333 0-13.653334-13.653333l0 0q0-13.653333 13.653334-13.653333Z" fill="#FF9600" p-id="1595"></path><path d="M300.373333 355.259733m13.653334 0l395.946666 0q13.653333 0 13.653334 13.653334l0 0q0 13.653333-13.653334 13.653333l-395.946666 0q-13.653333 0-13.653334-13.653333l0 0q0-13.653333 13.653334-13.653334Z" fill="#FF9600" p-id="1596"></path><path d="M300.373333 430.08m13.653334 0l395.946666 0q13.653333 0 13.653334 13.653333l0 0q0 13.653333-13.653334 13.653334l-395.946666 0q-13.653333 0-13.653334-13.653334l0 0q0-13.653333 13.653334-13.653333Z" fill="#FF9600" p-id="1597"></path></svg>