<?xml version="1.0" standalone="no"?><!DOCTYPE svg PUBLIC "-//W3C//DTD SVG 1.1//EN" "http://www.w3.org/Graphics/SVG/1.1/DTD/svg11.dtd"><svg height="1387" node-id="1" sillyvg="true" template-height="1387" template-width="1071" version="1.1" viewBox="0 0 1071 1387" width="1071" xmlns="http://www.w3.org/2000/svg" xmlns:xlink="http://www.w3.org/1999/xlink"><defs node-id="80"><linearGradient gradientUnits="userSpaceOnUse" id="paint0_linear_1617_18725" node-id="53" spreadMethod="pad" x1="450.554" x2="450.554" y1="399.733" y2="1272.23"><stop offset="0.02" stop-color="#bfd1ff"></stop><stop offset="1" stop-color="#ffffff"></stop></linearGradient><linearGradient gradientUnits="userSpaceOnUse" id="paint1_linear_1617_18725" node-id="56" spreadMethod="pad" x1="519.554" x2="519.554" y1="436.983" y2="1161.11"><stop offset="0.02" stop-color="#2575f2"></stop><stop offset="1" stop-color="#6a11c1"></stop></linearGradient><linearGradient gradientUnits="userSpaceOnUse" id="paint2_linear_1617_18725" node-id="59" spreadMethod="pad" x1="594.554" x2="594.554" y1="473.977" y2="1198.11"><stop offset="0.02" stop-color="#2575f2"></stop><stop offset="1" stop-color="#6a11c1"></stop></linearGradient><linearGradient gradientUnits="userSpaceOnUse" id="paint3_linear_1617_18725" node-id="62" spreadMethod="pad" x1="659.446" x2="659.446" y1="508.686" y2="1381.17"><stop offset="0.02" stop-color="#bfd1ff"></stop><stop offset="1" stop-color="#ffffff"></stop></linearGradient><linearGradient gradientUnits="userSpaceOnUse" id="paint4_linear_1617_18725" node-id="65" spreadMethod="pad" x1="1014.75" x2="961" y1="336.886" y2="336.886"><stop offset="0" stop-color="#6070e3"></stop><stop offset="1" stop-color="#ee84c5"></stop></linearGradient><linearGradient gradientUnits="userSpaceOnUse" id="paint5_linear_1617_18725" node-id="68" spreadMethod="pad" x1="302.962" x2="836.477" y1="983.228" y2="845.68"><stop offset="0.02" stop-color="#2575f2"></stop><stop offset="1" stop-color="#b881ff"></stop></linearGradient><linearGradient gradientUnits="userSpaceOnUse" id="paint6_linear_1617_18725" node-id="71" spreadMethod="pad" x1="655.016" x2="308.756" y1="1372.84" y2="1068.17"><stop offset="0" stop-color="#9ccff7"></stop><stop offset="1" stop-color="#2e7feb"></stop></linearGradient><linearGradient gradientUnits="userSpaceOnUse" id="paint7_linear_1617_18725" node-id="74" spreadMethod="pad" x1="869.92" x2="815.143" y1="444.096" y2="364.401"><stop offset="0.02" stop-color="#f477bb"></stop><stop offset="1" stop-color="#f695cc"></stop></linearGradient><clipPath id="clip0_1617_18725" node-id="77"><path d="M 0.00 0.00 L 1071.00 0.00 L 1071.00 1387.00 L 0.00 1387.00 Z" fill="#000000" fill-rule="nonzero" node-id="131" stroke="none" target-height="1387" target-width="1071" target-x="0" target-y="0"></path></clipPath></defs><g clip-path="url(#clip0_1617_18725)" id="sillyvg_g_0" node-id="135"><path d="M 59.37 1275.39 L 841.75 823.69 C 852.99 817.20 862.12 799.76 862.12 784.75 L 862.12 76.85 C 862.12 61.84 852.99 54.95 841.75 61.44 L 59.37 513.14 C 48.11 519.64 39.00 537.07 39.00 552.08 L 39.00 1259.98 C 39.00 1274.99 48.11 1281.88 59.37 1275.39 Z" fill="url(#paint0_linear_1617_18725)" fill-rule="nonzero" node-id="137" stroke="none" target-height="1226.9309" target-width="823.121" target-x="39" target-y="54.9491"></path><path d="M 128.37 1329.40 L 910.75 877.69 C 922.01 871.20 931.12 853.77 931.12 838.77 L 931.12 130.85 C 931.12 115.84 922.01 108.95 910.75 115.44 L 128.37 567.15 C 117.13 573.65 108.00 591.08 108.00 606.08 L 108.00 1313.99 C 108.00 1329.00 117.13 1335.90 128.37 1329.40 Z" fill="url(#paint1_linear_1617_18725)" fill-rule="nonzero" node-id="139" stroke="none" target-height="1226.951" target-width="823.121" target-x="108" target-y="108.949"></path><path d="M 146.88 1337.52 L 929.25 885.82 C 940.50 879.32 949.62 861.89 949.62 846.88 L 949.62 138.98 C 949.62 123.97 940.50 117.08 929.25 123.57 L 146.88 575.27 C 135.62 581.76 126.50 599.20 126.50 614.21 L 126.50 1322.11 C 126.50 1337.12 135.62 1344.01 146.88 1337.52 Z" fill="#ffffff" fill-opacity="0.4" fill-rule="nonzero" group-id="1" node-id="143" stroke="none" target-height="1226.933" target-width="823.12" target-x="126.504" target-y="117.077"></path><path d="M 203.37 1366.39 L 985.75 914.68 C 997.01 908.19 1006.12 890.77 1006.12 875.76 L 1006.12 167.84 C 1006.12 152.84 997.01 145.94 985.75 152.44 L 203.37 604.15 C 192.13 610.64 183.00 628.08 183.00 643.07 L 183.00 1350.99 C 183.00 1366.00 192.13 1372.89 203.37 1366.39 Z" fill="url(#paint2_linear_1617_18725)" fill-rule="nonzero" node-id="146" stroke="none" target-height="1226.947" target-width="823.12" target-x="183" target-y="145.943"></path><path d="M 220.37 1372.39 L 1002.75 920.69 C 1013.99 914.20 1023.12 896.76 1023.12 881.75 L 1023.12 173.85 C 1023.12 158.84 1013.99 151.95 1002.75 158.44 L 220.37 610.14 C 209.12 616.64 200.00 634.07 200.00 649.08 L 200.00 1356.98 C 200.00 1371.99 209.12 1378.88 220.37 1372.39 Z" fill="#ffffff" fill-opacity="0.4" fill-rule="nonzero" group-id="2" node-id="150" stroke="none" target-height="1226.931" target-width="823.12" target-x="200" target-y="151.949"></path><path d="M 268.26 1384.32 L 1050.64 932.63 C 1061.89 926.13 1071.01 908.70 1071.01 893.69 L 1071.01 185.77 C 1071.01 170.78 1061.89 163.95 1050.64 170.37 L 268.26 622.08 C 257.01 628.57 247.89 646.01 247.89 661.00 L 247.89 1368.92 C 247.89 1383.93 257.01 1390.82 268.26 1384.32 Z" fill="url(#paint3_linear_1617_18725)" fill-rule="nonzero" node-id="153" stroke="none" target-height="1226.87" target-width="823.11804" target-x="247.892" target-y="163.95"></path><path d="M 793.19 1034.21 L 1015.35 905.94 C 1026.60 899.44 1035.72 882.02 1035.72 867.02 L 1035.72 253.21 C 1035.72 238.20 1026.60 231.31 1015.35 237.80 L 793.19 366.09 C 781.94 372.58 772.81 390.02 772.81 405.02 L 772.81 1018.83 C 772.81 1033.81 781.94 1040.71 793.19 1034.21 Z" fill="#ffffff" fill-rule="nonzero" node-id="155" stroke="none" target-height="809.402" target-width="262.90698" target-x="772.813" target-y="231.308"></path><path d="M 987.92 305.74 C 1002.70 296.95 1014.75 304.25 1014.75 321.40 C 1014.22 330.73 1011.51 339.79 1006.83 347.88 C 1002.16 355.96 995.65 362.83 987.83 367.94 C 973.05 376.74 961.00 369.52 961.00 352.37 C 961.55 343.04 964.27 333.97 968.95 325.87 C 973.62 317.78 980.12 310.89 987.92 305.74 Z" fill="url(#paint4_linear_1617_18725)" fill-rule="nonzero" node-id="157" stroke="none" target-height="79.789" target-width="53.75" target-x="961" target-y="296.947"></path><path d="M 1017.90 784.39 C 1017.90 779.77 1012.90 776.89 1008.90 779.20 L 833.00 880.74 C 831.14 881.81 830.00 883.79 830.00 885.93 L 830.00 908.23 C 830.00 912.85 835.00 915.74 839.00 913.43 L 1014.90 811.89 C 1016.76 810.82 1017.90 808.84 1017.90 806.69 L 1017.90 784.39 Z" fill="#dfe6fd" fill-rule="nonzero" node-id="159" stroke="none" target-height="138.85101" target-width="187.90002" target-x="830" target-y="776.886"></path><path d="M 941.03 738.06 C 937.31 740.29 934.09 745.50 934.09 749.96 C 934.09 754.42 937.31 756.16 941.03 753.93 L 1011.22 713.51 C 1014.94 711.28 1018.16 706.08 1018.16 701.62 C 1018.16 697.15 1015.19 695.42 1011.22 697.65 L 941.03 738.06 Z" fill="#0fd3ff" fill-rule="nonzero" node-id="161" stroke="none" target-height="60.74298" target-width="84.07495" target-x="934.085" target-y="695.416"></path><path d="M 964.10 686.24 C 960.38 688.48 957.15 693.68 957.15 698.14 C 957.15 702.61 960.38 704.34 964.10 702.11 L 1011.47 674.84 C 1015.19 672.61 1018.41 667.40 1018.41 662.94 C 1018.41 658.48 1015.19 656.74 1011.47 658.97 L 964.10 686.24 Z" fill="#3c84e5" fill-rule="nonzero" node-id="163" stroke="none" target-height="47.60199" target-width="61.258972" target-x="957.151" target-y="656.74"></path><path d="M 873.12 780.71 C 869.40 782.94 866.17 788.14 866.17 792.61 C 866.17 797.07 869.40 798.80 873.12 796.57 L 912.80 773.51 C 916.52 771.28 919.75 766.08 919.75 761.61 C 919.75 757.15 916.52 755.42 912.80 757.65 L 873.12 780.71 Z" fill="#f68ac6" fill-rule="nonzero" node-id="165" stroke="none" target-height="43.388" target-width="53.572998" target-x="866.175" target-y="755.416"></path><path d="M 801.19 857.81 C 797.47 860.04 794.25 865.25 794.25 869.71 C 794.25 874.17 797.47 875.91 801.19 873.68 L 863.69 837.48 C 867.41 835.25 870.64 830.04 870.64 825.58 C 870.64 821.12 867.41 819.38 863.69 821.61 L 801.19 857.81 Z" fill="#0fd3ff" fill-rule="nonzero" node-id="167" stroke="none" target-height="56.527954" target-width="76.39099" target-x="794.248" target-y="819.382"></path><path d="M 800.95 822.36 C 797.22 824.59 794.00 829.79 794.00 834.26 C 794.00 838.72 797.22 840.46 800.95 838.23 L 840.63 815.17 C 844.35 812.94 847.57 807.73 847.57 803.27 C 847.57 798.80 844.60 797.07 840.63 799.30 L 800.95 822.36 Z" fill="#5c52e1" fill-rule="nonzero" node-id="169" stroke="none" target-height="43.388" target-width="53.572998" target-x="794" target-y="797.068"></path><path d="M 895.94 803.02 C 892.22 805.25 888.99 810.46 888.99 814.92 C 888.99 819.38 891.97 821.12 895.94 818.89 L 958.44 782.69 C 962.16 780.46 965.38 775.25 965.38 770.79 C 965.38 766.33 962.16 764.59 958.44 766.82 L 895.94 803.02 Z" fill="#5c52e1" fill-rule="nonzero" node-id="171" stroke="none" target-height="56.528015" target-width="76.390015" target-x="888.993" target-y="764.589"></path><path d="M 800.95 783.93 C 797.22 786.16 794.00 791.37 794.00 795.83 C 794.00 800.29 797.22 802.03 800.95 799.79 L 935.87 721.95 C 939.59 719.71 942.81 714.51 942.81 710.04 C 942.81 705.58 939.59 703.85 935.87 706.08 L 800.95 783.93 Z" fill="#f68ac6" fill-rule="nonzero" node-id="173" stroke="none" target-height="98.18097" target-width="148.81299" target-x="794" target-y="703.846"></path><path d="M 986.91 747.23 C 983.19 749.47 979.97 754.67 979.97 759.13 C 979.97 763.60 983.19 765.33 986.91 763.10 L 1011.47 748.97 C 1015.19 746.74 1018.41 741.53 1018.41 737.07 C 1018.41 732.61 1015.44 730.87 1011.47 733.10 L 986.91 747.23 Z" fill="#f68ac6" fill-rule="nonzero" node-id="175" stroke="none" target-height="34.463013" target-width="38.44098" target-x="979.969" target-y="730.87"></path><path d="M 303.56 1031.06 L 734.80 782.10 C 746.05 775.59 755.17 758.17 755.17 743.16 L 755.17 415.18 C 755.17 400.17 746.05 393.28 734.80 399.77 L 303.56 648.82 C 292.30 655.31 283.18 672.75 283.18 687.75 L 283.18 1015.66 C 283.18 1030.65 292.30 1037.55 303.56 1031.06 Z" fill="url(#paint5_linear_1617_18725)" fill-rule="nonzero" node-id="177" stroke="none" target-height="644.27203" target-width="471.992" target-x="283.182" target-y="393.278"></path><path d="M 686.54 484.54 L 718.30 466.21 C 721.71 464.23 724.48 458.96 724.48 454.41 C 724.48 449.86 721.71 447.78 718.30 449.74 L 686.54 468.07 C 683.13 470.05 680.36 475.32 680.36 479.87 C 680.36 484.43 683.13 486.52 686.54 484.54 Z" fill="#ffffff" fill-rule="nonzero" node-id="179" stroke="none" target-height="38.74301" target-width="44.12201" target-x="680.358" target-y="447.776"></path><path d="M 629.20 517.65 L 660.95 499.32 C 664.35 497.34 667.12 492.06 667.12 487.52 C 667.12 482.96 664.35 480.88 660.95 482.85 L 629.19 501.18 C 625.77 503.16 623.00 508.43 623.00 512.98 C 623.01 517.53 625.79 519.59 629.20 517.65 Z" fill="#ffffff" fill-rule="nonzero" node-id="181" stroke="none" target-height="38.705017" target-width="44.12201" target-x="623" target-y="480.883"></path><path d="M 374.93 958.09 L 309.64 995.77 L 309.64 691.12 L 374.93 726.36 L 374.93 958.09 Z" fill="#ffffff" fill-opacity="0.4" fill-rule="nonzero" group-id="3" node-id="185" stroke="none" target-height="304.65704" target-width="65.290985" target-x="309.64" target-y="691.118"></path><path d="M 516.08 876.59 L 450.80 914.28 L 450.80 644.90 L 516.08 674.26 L 516.08 876.59 Z" fill="#ffffff" fill-opacity="0.4" fill-rule="nonzero" group-id="4" node-id="190" stroke="none" target-height="269.38" target-width="65.278015" target-x="450.8" target-y="644.903"></path><path d="M 586.66 835.85 L 521.38 873.54 L 521.38 675.92 L 586.66 693.51 L 586.66 835.85 Z" fill="#ffffff" fill-opacity="0.4" fill-rule="nonzero" group-id="5" node-id="195" stroke="none" target-height="197.61896" target-width="65.278015" target-x="521.38" target-y="675.918"></path><path d="M 591.96 832.79 L 657.24 795.10 L 657.24 612.77 L 591.96 684.57 L 591.96 832.79 Z" fill="#ffffff" fill-opacity="0.4" fill-rule="nonzero" group-id="6" node-id="200" stroke="none" target-height="220.021" target-width="65.277954" target-x="591.96" target-y="612.771"></path><path d="M 727.82 754.34 L 662.54 792.03 L 662.54 612.07 L 727.82 699.06 L 727.82 754.34 Z" fill="#ffffff" fill-opacity="0.4" fill-rule="nonzero" group-id="7" node-id="205" stroke="none" target-height="179.96802" target-width="65.278015" target-x="662.54" target-y="612.065"></path><path d="M 380.22 955.03 L 445.51 917.34 L 445.51 643.26 L 380.22 726.83 L 380.22 955.03 Z" fill="#ffffff" fill-opacity="0.4" fill-rule="nonzero" group-id="8" node-id="210" stroke="none" target-height="311.76898" target-width="65.290985" target-x="380.22" target-y="643.26"></path><path d="M 728.25 698.22 L 659.88 610.06 L 586.22 690.82 L 517.41 671.73 L 448.16 640.55 L 380.22 726.83 L 312.29 689.59" fill="none" node-id="213" stroke="#ffffff" stroke-linecap="butt" stroke-width="3.3" target-height="116.76898" target-width="415.97" target-x="312.285" target-y="610.062"></path><path d="M 666.21 616.26 C 668.85 610.06 668.15 603.83 664.64 602.34 C 661.14 600.85 656.16 604.66 653.52 610.86 C 650.89 617.06 651.59 623.29 655.09 624.78 C 658.60 626.27 663.57 622.46 666.21 616.26 Z" fill="#ffffff" fill-rule="nonzero" node-id="215" stroke="none" target-height="25.424988" target-width="17.960999" target-x="650.887" target-y="600.846"></path><path d="M 525.05 674.22 C 527.69 668.02 526.99 661.79 523.48 660.30 C 519.98 658.81 515.00 662.63 512.37 668.82 C 509.73 675.02 510.43 681.25 513.93 682.75 C 517.44 684.24 522.41 680.42 525.05 674.22 Z" fill="#ffffff" fill-rule="nonzero" node-id="217" stroke="none" target-height="25.425049" target-width="17.960999" target-x="509.729" target-y="658.811"></path><path d="M 455.36 645.06 C 457.99 638.86 457.29 632.62 453.79 631.13 C 450.28 629.64 445.31 633.46 442.67 639.66 C 440.03 645.86 440.73 652.09 444.24 653.58 C 447.74 655.07 452.72 651.25 455.36 645.06 Z" fill="#ffffff" fill-rule="nonzero" node-id="219" stroke="none" target-height="25.424988" target-width="17.960999" target-x="440.032" target-y="629.644"></path><path d="M 318.62 692.24 C 321.26 686.05 320.56 679.81 317.06 678.32 C 313.55 676.83 308.57 680.65 305.94 686.85 C 303.30 693.04 304.00 699.28 307.50 700.77 C 311.01 702.26 315.99 698.44 318.62 692.24 Z" fill="#ffffff" fill-rule="nonzero" node-id="221" stroke="none" target-height="25.424988" target-width="17.960999" target-x="303.299" target-y="676.833"></path><path d="M 734.15 701.73 C 736.78 695.53 736.08 689.30 732.58 687.81 C 729.08 686.32 724.10 690.14 721.46 696.33 C 718.82 702.53 719.52 708.76 723.03 710.25 C 726.53 711.75 731.51 707.93 734.15 701.73 Z" fill="#ffffff" fill-rule="nonzero" node-id="223" stroke="none" target-height="25.424988" target-width="17.960999" target-x="718.823" target-y="686.321"></path><path d="M 595.63 689.94 C 598.27 683.74 597.57 677.51 594.06 676.02 C 590.56 674.53 585.58 678.34 582.95 684.54 C 580.31 690.74 581.01 696.97 584.51 698.46 C 588.02 699.95 593.00 696.13 595.63 689.94 Z" fill="#ffffff" fill-rule="nonzero" node-id="225" stroke="none" target-height="25.424988" target-width="17.960999" target-x="580.308" target-y="674.526"></path><path d="M 384.77 730.52 C 387.41 724.32 386.71 718.09 383.21 716.60 C 379.70 715.10 374.73 718.92 372.09 725.12 C 369.45 731.32 370.15 737.55 373.66 739.04 C 377.16 740.53 382.14 736.71 384.77 730.52 Z" fill="#ffffff" fill-rule="nonzero" node-id="227" stroke="none" target-height="25.424988" target-width="17.960999" target-x="369.451" target-y="715.104"></path><path d="M 303.56 1054.58 L 734.80 805.54 C 746.05 799.04 755.17 805.94 755.17 820.94 L 755.17 1028.91 C 755.17 1043.92 746.05 1061.35 734.80 1067.84 L 303.56 1316.89 C 292.30 1323.39 283.18 1316.49 283.18 1301.48 L 283.18 1093.52 C 283.18 1078.56 292.30 1061.08 303.56 1054.58 Z" fill="url(#paint6_linear_1617_18725)" fill-opacity="0.65" fill-rule="nonzero" group-id="9" node-id="231" stroke="none" target-height="524.348" target-width="471.992" target-x="283.182" target-y="799.042"></path><path d="M 732.90 999.39 C 732.90 994.77 727.90 991.89 723.90 994.20 L 548.00 1095.74 C 546.14 1096.81 545.00 1098.79 545.00 1100.93 L 545.00 1123.23 C 545.00 1127.85 550.00 1130.74 554.00 1128.43 L 729.90 1026.89 C 731.76 1025.82 732.90 1023.84 732.90 1021.69 L 732.90 999.39 Z" fill="#ff94cf" fill-rule="nonzero" node-id="234" stroke="none" target-height="138.854" target-width="187.90399" target-x="545" target-y="991.886"></path><path d="M 724.18 853.42 C 724.18 849.70 720.13 847.38 716.92 849.28 L 602.37 916.78 C 600.90 917.65 600.00 919.22 600.00 920.93 L 600.00 920.93 C 600.00 924.65 604.05 926.97 607.26 925.07 L 721.81 857.57 C 723.27 856.70 724.18 855.13 724.18 853.42 L 724.18 853.42 Z" fill="#dfe6fd" fill-opacity="0.6" fill-rule="nonzero" group-id="10" node-id="238" stroke="none" target-height="79.58002" target-width="124.176025" target-x="600" target-y="847.385"></path><path d="M 724.18 882.54 C 724.18 878.82 720.13 876.51 716.92 878.40 L 648.51 918.81 C 647.04 919.68 646.15 921.25 646.15 922.96 L 646.15 922.96 C 646.15 926.68 650.20 928.99 653.40 927.10 L 721.81 886.68 C 723.28 885.82 724.18 884.24 724.18 882.54 L 724.18 882.54 Z" fill="#dfe6fd" fill-opacity="0.6" fill-rule="nonzero" group-id="11" node-id="243" stroke="none" target-height="52.48297" target-width="78.02905" target-x="646.147" target-y="876.507"></path><path d="M 311.55 1108.98 C 311.79 1107.34 312.77 1105.90 314.22 1105.08 L 493.19 1004.56 C 497.31 1002.24 502.31 1005.62 501.70 1010.31 L 501.70 1010.31 C 501.47 1012.11 500.39 1013.70 498.80 1014.59 L 319.45 1114.43 C 315.58 1116.58 310.91 1113.37 311.55 1108.98 L 311.55 1108.98 Z" fill="#dfe6fd" fill-rule="nonzero" node-id="246" stroke="none" target-height="114.339966" target-width="191.393" target-x="310.914" target-y="1002.24"></path><path d="M 311.49 1144.51 C 311.71 1142.90 312.67 1141.48 314.08 1140.66 L 535.64 1012.74 C 539.73 1010.38 544.75 1013.71 544.17 1018.39 L 544.17 1018.39 C 543.95 1020.18 542.90 1021.76 541.34 1022.65 L 319.35 1149.82 C 315.54 1152.01 310.88 1148.86 311.49 1144.51 L 311.49 1144.51 Z" fill="#dfe6fd" fill-rule="nonzero" node-id="248" stroke="none" target-height="141.63" target-width="233.87097" target-x="310.88" target-y="1010.38"></path><path d="M 311.56 1183.48 C 311.79 1181.88 312.74 1180.48 314.13 1179.68 L 620.64 1002.74 C 624.73 1000.38 629.75 1003.71 629.17 1008.39 L 629.17 1008.39 C 628.95 1010.18 627.90 1011.76 626.34 1012.65 L 319.38 1188.80 C 315.58 1190.98 310.93 1187.82 311.56 1183.48 L 311.56 1183.48 Z" fill="#dfe6fd" fill-rule="nonzero" node-id="250" stroke="none" target-height="190.59998" target-width="318.82498" target-x="310.926" target-y="1000.38"></path><path d="M 311.49 1218.49 C 311.71 1216.89 312.66 1215.48 314.05 1214.66 L 495.61 1108.81 C 499.68 1106.44 504.70 1109.77 504.10 1114.45 L 504.10 1114.45 C 503.87 1116.20 502.84 1117.75 501.31 1118.64 L 319.35 1223.78 C 315.55 1225.97 310.88 1222.84 311.49 1218.49 L 311.49 1218.49 Z" fill="#dfe6fd" fill-rule="nonzero" node-id="252" stroke="none" target-height="119.53003" target-width="193.82101" target-x="310.883" target-y="1106.44"></path><path d="M 311.49 1254.35 C 311.71 1252.74 312.67 1251.32 314.07 1250.50 L 449.46 1172.10 C 453.54 1169.73 458.56 1173.08 457.96 1177.75 L 457.96 1177.75 C 457.73 1179.52 456.69 1181.07 455.14 1181.96 L 319.35 1259.67 C 315.54 1261.86 310.88 1258.70 311.49 1254.35 L 311.49 1254.35 Z" fill="#dfe6fd" fill-rule="nonzero" node-id="254" stroke="none" target-height="92.130005" target-width="147.681" target-x="310.88" target-y="1169.73"></path><path d="M 806.84 450.94 L 887.12 404.60 C 894.18 400.51 899.96 389.57 899.96 380.20 C 899.96 370.78 894.23 366.45 887.12 370.54 L 806.84 416.88 C 799.78 420.96 794.00 431.90 794.00 441.27 C 794.05 450.69 799.78 455.02 806.84 450.94 Z" fill="url(#paint7_linear_1617_18725)" fill-rule="nonzero" node-id="256" stroke="none" target-height="88.565" target-width="105.96002" target-x="794" target-y="366.455"></path><path d="M 799.29 516.97 L 1009.26 395.75 C 1012.18 394.06 1014.55 389.53 1014.55 385.63 C 1014.55 381.78 1012.18 379.94 1009.26 381.62 L 799.29 502.85 C 796.36 504.53 794.00 509.06 794.00 512.97 C 794.00 516.80 796.36 518.60 799.29 516.97 Z" fill="#dfe6fd" fill-rule="nonzero" node-id="258" stroke="none" target-height="138.65598" target-width="220.54999" target-x="794" target-y="379.944"></path><path d="M 799.29 554.54 L 1009.26 433.32 C 1012.18 431.64 1014.55 427.11 1014.55 423.20 C 1014.55 419.35 1012.18 417.52 1009.26 419.21 L 799.29 540.44 C 796.36 542.12 794.00 546.65 794.00 550.55 C 794.00 554.44 796.36 556.24 799.29 554.54 Z" fill="#dfe6fd" fill-rule="nonzero" node-id="260" stroke="none" target-height="138.72101" target-width="220.54999" target-x="794" target-y="417.518"></path><path d="M 799.29 629.84 L 1009.26 508.61 C 1012.18 506.92 1014.55 502.39 1014.55 498.50 C 1014.55 494.65 1012.18 492.81 1009.26 494.49 L 799.29 615.72 C 796.36 617.41 794.00 621.93 794.00 625.83 C 794.00 629.73 796.36 631.52 799.29 629.84 Z" fill="#dfe6fd" fill-rule="nonzero" node-id="262" stroke="none" target-height="138.70801" target-width="220.54999" target-x="794" target-y="492.81"></path><path d="M 799.29 667.48 L 1009.26 546.25 C 1012.18 544.56 1014.55 540.04 1014.55 536.14 C 1014.55 532.28 1012.18 530.45 1009.26 532.13 L 799.29 653.35 C 796.36 655.05 794.00 659.58 794.00 663.47 C 794.00 667.37 796.36 669.17 799.29 667.48 Z" fill="#dfe6fd" fill-rule="nonzero" node-id="264" stroke="none" target-height="138.72101" target-width="220.54999" target-x="794" target-y="530.449"></path><path d="M 865.45 553.99 L 1009.23 470.96 C 1012.16 469.28 1014.52 464.75 1014.52 460.86 C 1014.52 457.01 1012.16 455.16 1009.23 456.85 L 865.45 539.87 C 862.53 541.57 860.16 546.09 860.16 549.99 C 860.16 553.89 862.53 555.67 865.45 553.99 Z" fill="#dfe6fd" fill-rule="nonzero" node-id="266" stroke="none" target-height="100.517" target-width="154.35602" target-x="860.164" target-y="455.158"></path></g></svg>