<?xml version="1.0" standalone="no"?><!DOCTYPE svg PUBLIC "-//W3C//DTD SVG 1.1//EN" "http://www.w3.org/Graphics/SVG/1.1/DTD/svg11.dtd"><svg t="1669701873800" class="icon" viewBox="0 0 1024 1024" version="1.1" xmlns="http://www.w3.org/2000/svg" p-id="2037" xmlns:xlink="http://www.w3.org/1999/xlink" width="32" height="32"><path d="M920.2 708.1V193.6c15.1-2.5 26.8-15.7 26.8-31.6 0-17.6-14.4-32-32-32H105.4c-17.6 0-32 14.4-32 32s14.4 32 32 32h2.8v514h-0.5c-17.6 0-32 14.4-32 32s14.4 32 32 32h372.8v67.6H410c-17.6 0-32 14.4-32 32s14.4 32 32 32h200.5c17.6 0 32-14.4 32-32s-14.4-32-32-32h-66V772h372.8c17.6 0 32-14.4 32-32 0-16.6-12.8-30.4-29.1-31.9zM172.2 194h684v514h-684V194z" p-id="2038" fill="#707070"></path><path d="M279 594c-8.5 0-17-3.4-23.3-10-12.1-12.8-11.6-33.1 1.3-45.2l144-136c11.7-11.1 29.9-11.7 42.3-1.4l87.8 72.3 185.5-182.4c12.6-12.4 32.9-12.2 45.3 0.4 12.4 12.6 12.2 32.9-0.4 45.3l-206 202.6c-11.7 11.5-30.1 12.3-42.8 1.9l-88.2-72.6L301 585.3c-6.2 5.8-14.1 8.7-22 8.7z" p-id="2039" fill="#707070"></path></svg>