<?xml version="1.0" standalone="no"?><!DOCTYPE svg PUBLIC "-//W3C//DTD SVG 1.1//EN" "http://www.w3.org/Graphics/SVG/1.1/DTD/svg11.dtd"><svg t="1667014885172" class="icon" viewBox="0 0 1024 1024" version="1.1" xmlns="http://www.w3.org/2000/svg" p-id="8875" xmlns:xlink="http://www.w3.org/1999/xlink" width="128" height="128"><path d="M801.258843 145.221818H219.356033a72.509355 72.509355 0 0 0-72.441653 72.441653v581.90281a72.509355 72.509355 0 0 0 72.441653 72.441653h582.241322a72.509355 72.509355 0 0 0 72.441653-72.441653V217.324959a73.18638 73.18638 0 0 0-72.780165-72.103141z m10.832397 482.718678v171.964297a10.900099 10.900099 0 0 1-10.832397 10.832397h-143.190744v-182.458182h154.023141z m0-238.989752v177.380496h-153.684628v-177.380496z m-215.632397 238.989752v182.458182h-171.964298v-182.458182z m0-238.989752v177.380496h-171.964298v-177.380496z m-233.912066 238.989752v182.458182H219.356033a10.629289 10.629289 0 0 1-10.493884-10.832397v-171.964298h153.684628z m0-238.989752v177.380496H208.862149v-177.380496z m449.544463-170.948761v109.339505H208.523636V218.001983a10.832397 10.832397 0 0 1 10.493885-10.832396h582.241322a10.900099 10.900099 0 0 1 10.832397 10.832396z" p-id="8876"></path></svg>