<?xml version="1.0" standalone="no"?><!DOCTYPE svg PUBLIC "-//W3C//DTD SVG 1.1//EN" "http://www.w3.org/Graphics/SVG/1.1/DTD/svg11.dtd"><svg t="1667014877971" class="icon" viewBox="0 0 1024 1024" version="1.1" xmlns="http://www.w3.org/2000/svg" p-id="8564" xmlns:xlink="http://www.w3.org/1999/xlink" width="128" height="128"><path d="M804.935323 467.337977H200.384743a81.886036 81.886036 0 0 1-81.852073-81.852073V198.346932A81.886036 81.886036 0 0 1 200.384743 116.494859h604.55058a81.886036 81.886036 0 0 1 81.852073 81.852073v187.138972a81.886036 81.886036 0 0 1-81.852073 81.852073zM200.384743 184.421891a13.992968 13.992968 0 0 0-13.925042 13.925041v187.138972a13.992968 13.992968 0 0 0 13.925042 13.925041h604.55058a13.992968 13.992968 0 0 0 13.925042-13.925041V198.346932a13.992968 13.992968 0 0 0-13.925042-13.925041z" p-id="8565"></path><path d="M281.557546 358.994362a33.963516 33.963516 0 0 1-33.963516-33.963516V253.367828a33.963516 33.963516 0 0 1 67.927031 0v71.663018a33.963516 33.963516 0 0 1-33.963515 33.963516zM281.557546 777.424876a33.963516 33.963516 0 0 1-33.963516-33.963516v-71.663018a33.963516 33.963516 0 0 1 67.927031 0v71.663018a33.963516 33.963516 0 0 1-33.963515 33.963516z" p-id="8566"></path><path d="M804.935323 878.296517H200.384743a81.886036 81.886036 0 0 1-81.852073-81.852073v-187.138971a81.886036 81.886036 0 0 1 81.852073-81.852073h604.55058a81.886036 81.886036 0 0 1 81.852073 81.852073v187.138971a81.886036 81.886036 0 0 1-81.852073 81.852073zM200.384743 595.380431a13.992968 13.992968 0 0 0-13.925042 13.925042v187.138971a13.992968 13.992968 0 0 0 13.925042 13.925042h604.55058a13.992968 13.992968 0 0 0 13.925042-13.925042v-187.138971a13.992968 13.992968 0 0 0-13.925042-13.925042H200.384743z" p-id="8567"></path></svg>