<?xml version="1.0" standalone="no"?><!DOCTYPE svg PUBLIC "-//W3C//DTD SVG 1.1//EN" "http://www.w3.org/Graphics/SVG/1.1/DTD/svg11.dtd"><svg t="1721901227283" class="icon" viewBox="0 0 1024 1024" version="1.1" xmlns="http://www.w3.org/2000/svg" p-id="5284" xmlns:xlink="http://www.w3.org/1999/xlink" width="200" height="200"><path d="M512.006583 1024c70.216508 0 136.239529-13.409402 198.069065-40.276969a524.332018 524.332018 0 0 0 273.893141-273.941902c26.672521-61.63449 40.033162-127.559989 40.033162-197.776497s-13.360641-136.142006-40.033162-197.776496a522.430321 522.430321 0 0 0-110.883568-163.350903A521.552615 521.552615 0 0 0 709.539272 40.091188 494.197433 494.197433 0 0 0 511.470207 0.009265C441.93636 0.009265 376.30343 13.369906 314.522655 40.042426a521.552615 521.552615 0 0 0-163.545948 110.883568A522.430321 522.430321 0 0 0 39.995615 314.228136 492.344498 492.344498 0 0 0 0.011215 512.004632c0 70.216508 13.409402 136.142006 40.276969 197.776497A525.209724 525.209724 0 0 0 151.171752 872.839463a524.332018 524.332018 0 0 0 163.350903 110.883568c61.780774 26.818805 127.60875 40.276969 197.483928 40.276969z m242.051905-388.190012c-10.727522-0.390092-19.748393-5.266238-27.160135-14.774723l-82.699442-114.296871c-7.021651-9.849816-9.020871-19.602108-6.046422-29.256878 2.974449-9.65477 10.825045-14.482155 23.405503-14.482155h53.783894a198.312872 198.312872 0 0 0-40.813345-77.677011 212.356174 212.356174 0 0 0-70.850407-54.515316 206.260991 206.260991 0 0 0-90.598799-19.9922c-23.551787 0-44.714262 3.65711-63.487425 11.02009a237.468328 237.468328 0 0 0-55.051693 31.109814 55.588068 55.588068 0 0 1-33.450364 12.092843c-11.410182 0-21.503805-5.071192-30.280869-15.262338a38.033942 38.033942 0 0 1-9.264678-33.157795c2.34055-12.33665 10.142384-23.405503 23.503026-33.206557 21.406283-17.944219 46.957289-31.98752 76.604259-42.129904a279.646994 279.646994 0 0 1 91.427744-15.3111c48.078803 0 92.061643 10.044861 131.948521 30.037062 39.838116 19.9922 73.142195 47.932519 99.814716 83.772194a284.961993 284.961993 0 0 1 52.174766 123.220218h49.492885c12.287889 0 19.797154 4.876146 22.625319 14.482155 2.828165 9.65477 0.68266 19.407063-6.33899 29.256878l-81.62669 114.296871c-7.362981 10.191146-16.432613 15.116054-27.111374 14.774723z m-239.906401 160.132647c-48.127565 0-92.159166-10.044861-131.997282-30.037062-39.838116-19.9922-73.142195-47.786234-99.814716-83.235818-26.672521-35.449584-44.226647-76.555498-52.66238-123.26898H177.990557c-12.629219 0-20.33353-4.827385-23.161695-14.482155-2.828165-9.65477-0.68266-19.212017 6.33899-28.720502L243.330919 401.901248c7.362981-10.191146 16.383852-15.164815 27.111373-15.018531 10.727522 0.195046 19.407063 5.217477 26.087383 15.018531l83.235819 114.29687c7.021651 9.508485 9.118394 19.065732 6.33899 28.769264-2.828165 9.606008-10.581238 14.433393-23.210457 14.433393H311.840775c7.362981 29.159355 20.821145 55.100454 40.276969 77.96958 19.504585 22.820365 43.202657 40.910868 71.142975 54.271509 27.891557 13.31188 58.172426 19.9922 90.842607 19.9922 23.551787 0 44.714262-3.608348 63.487425-10.776283a212.112367 212.112367 0 0 0 54.515317-31.353621c10.873806-7.704311 22.040182-11.605228 33.450364-11.605229 11.410182 0 21.698851 4.924908 30.817245 14.774724a35.595868 35.595868 0 0 1 9.215916 33.157795c-2.633119 12.677981-10.434953 23.893117-23.405502 33.742933-21.455044 17.554127-47.006051 31.30486-76.701782 41.349721a284.084287 284.084287 0 0 1-91.378983 15.018531z" fill="#34C759" p-id="5285"></path></svg>