<?xml version="1.0" standalone="no"?><!DOCTYPE svg PUBLIC "-//W3C//DTD SVG 1.1//EN" "http://www.w3.org/Graphics/SVG/1.1/DTD/svg11.dtd"><svg t="1668479858873" class="icon" viewBox="0 0 1024 1024" version="1.1" xmlns="http://www.w3.org/2000/svg" p-id="6135" data-spm-anchor-id="a313x.7781069.0.i0" xmlns:xlink="http://www.w3.org/1999/xlink" width="128" height="128"><path d="M663.466667 526.933333L541.866667 405.333333c-17.066667-17.066667-42.666667-17.066667-59.733334 0l-121.6 121.6c-17.066667 17.066667-17.066667 42.666667 0 59.733334 8.533333 8.533333 19.2 12.8 29.866667 12.8s21.333333-4.266667 29.866667-12.8l46.933333-46.933334V853.333333c0 23.466667 19.2 42.666667 42.666667 42.666667s42.666667-19.2 42.666666-42.666667V539.733333l46.933334 46.933334c17.066667 17.066667 42.666667 17.066667 59.733333 0s21.333333-42.666667 4.266667-59.733334z" fill="#0D66E4" p-id="6136" data-spm-anchor-id="a313x.7781069.0.i1" class="selected"></path><path d="M808.533333 388.266667C789.333333 241.066667 663.466667 128 512 128c-151.466667 0-277.333333 113.066667-296.533333 260.266667-102.4 19.2-179.2 113.066667-172.8 221.866666 6.4 113.066667 106.666667 200.533333 219.733333 200.533334H405.333333c12.8 0 21.333333-8.533333 21.333334-21.333334v-128c0-12.8-10.666667-23.466667-23.466667-21.333333-42.666667 6.4-87.466667-19.2-93.866667-72.533333-4.266667-27.733333 8.533333-57.6 27.733334-76.8l113.066666-113.066667c14.933333-14.933333 32-23.466667 51.2-25.6 27.733333-4.266667 53.333333 6.4 70.4 23.466667l117.333334 117.333333c32 32 36.266667 85.333333 6.4 119.466667-19.2 23.466667-49.066667 32-76.8 27.733333-10.666667 0-21.333333 10.666667-21.333334 21.333333v128c0 12.8 8.533333 21.333333 21.333334 21.333334h142.933333c115.2 0 213.333333-87.466667 219.733333-200.533334 6.4-108.8-70.4-202.666667-172.8-221.866666z" fill="#0D66E4" p-id="6137" data-spm-anchor-id="a313x.7781069.0.i4" class="selected"></path></svg>