<?xml version="1.0" standalone="no"?><!DOCTYPE svg PUBLIC "-//W3C//DTD SVG 1.1//EN" "http://www.w3.org/Graphics/SVG/1.1/DTD/svg11.dtd"><svg t="1666847341896" class="icon" viewBox="0 0 1024 1024" version="1.1" xmlns="http://www.w3.org/2000/svg" p-id="4737" xmlns:xlink="http://www.w3.org/1999/xlink" width="200" height="200"><path d="M888.832 563.7c-11.286-11.286-29.855-11.286-41.142 0L588.094 823.296 465.518 700.72c-11.286-11.286-29.855-11.286-41.142 0s-11.286 29.855 0 41.142l143.209 143.209c11.286 11.286 29.855 11.286 41.142 0l280.227-280.227c11.165-11.286 11.165-29.855-0.122-41.142z" p-id="4738" fill="#666666"></path><path d="M383.113 804.727H213.205c-16.02 0-29.127-13.107-29.127-29.127V224.612c0-16.02 13.107-29.127 29.127-29.127h550.988c16.02 0 29.127 13.107 29.127 29.127v251.221c0 16.142 12.986 29.127 29.127 29.127s29.127-12.986 29.127-29.127V224.612c0-48.181-39.2-87.381-87.381-87.381H213.205c-48.181 0-87.381 39.2-87.381 87.381V775.6c0 48.181 39.2 87.381 87.381 87.381h169.908c16.142 0 29.127-12.986 29.127-29.127s-12.986-29.127-29.127-29.127z" p-id="4739" fill="#666666"></path><path d="M670.742 291.726H322.431c-16.02 0-29.127 13.107-29.127 29.127s13.107 29.127 29.127 29.127h348.311c16.02 0 29.127-13.107 29.127-29.127s-13.107-29.127-29.127-29.127z m0 140.417H322.431c-16.02 0-29.127 13.107-29.127 29.127s13.107 29.127 29.127 29.127h348.311c16.02 0 29.127-13.107 29.127-29.127s-13.107-29.127-29.127-29.127z m0 140.539H322.431c-16.02 0-29.127 13.107-29.127 29.127s13.107 29.127 29.127 29.127h348.311c16.02 0 29.127-13.107 29.127-29.127s-13.107-29.127-29.127-29.127z" p-id="4740" fill="#666666"></path></svg>