<?xml version="1.0" standalone="no"?><!DOCTYPE svg PUBLIC "-//W3C//DTD SVG 1.1//EN" "http://www.w3.org/Graphics/SVG/1.1/DTD/svg11.dtd"><svg t="1657282228922" class="icon" viewBox="0 0 1024 1024" version="1.1" xmlns="http://www.w3.org/2000/svg" p-id="11109" xmlns:xlink="http://www.w3.org/1999/xlink" width="200" height="200"><defs><style type="text/css"></style></defs><path d="M1024 544c0 265.12-214.944 480-480 480h-64C214.912 1024 0 809.12 0 544v-64C0 214.912 214.912 0 480 0h64c265.056 0 480 214.912 480 480v64z" fill="#0ACC8B" p-id="11110"></path><path d="M193.248 199.36l-18.88 18.88a40.16 40.16 0 0 0 0 56.704l260.32 249.024a9.504 9.504 0 0 0 2.368 1.856 113.696 113.696 0 0 0 10.848 112.512 112.416 112.416 0 0 0 104.928 46.272l-55.808-77.984a29.664 29.664 0 0 1 7.104-41.568l40.672-29.312a29.696 29.696 0 0 1 41.6 7.072l55.712 77.984a111.52 111.52 0 0 0-10.368-113.856 112.64 112.64 0 0 0-128.032-41.12 27.104 27.104 0 0 0-4.704-5.216L249.952 199.36a41.152 41.152 0 0 0-56.704 0zM243.84 232.928c9.92 9.92 9.92 25.984 0 35.424a24.768 24.768 0 0 1-35.456 0 24.8 24.8 0 0 1 0-35.424 24.8 24.8 0 0 1 35.456 0z" fill="#FFFFFF" p-id="11111"></path><path d="M861.344 600.544v-94.048l-66.112-8.032a269.216 269.216 0 0 0-41.152-98.72l41.152-52.48-66.656-66.624-52.48 41.12a286.336 286.336 0 0 0-98.72-41.12l-8.032-66.144h-94.016l-8.032 66.144a274.016 274.016 0 0 0-68.032 23.168l64.736 71.328a182.624 182.624 0 0 1 58.112-9.44 186.976 186.976 0 0 1 187.136 187.136c0 103.456-83.648 187.072-187.136 187.072a186.88 186.88 0 0 1-176.256-249.472l-74.656-57.184a272.384 272.384 0 0 0-21.728 64.736l-66.144 8v94.016l66.144 8.096a268.32 268.32 0 0 0 41.12 98.72l-41.12 52.48 66.624 66.624 52.448-41.152a286.464 286.464 0 0 0 98.752 41.152l8.032 66.112h94.016l8.032-66.112a268.48 268.48 0 0 0 98.72-41.152l52.48 41.152 66.656-66.624-41.152-52.48a286.304 286.304 0 0 0 41.152-98.72l66.112-7.552z" fill="#FFFFFF" p-id="11112"></path></svg>