<?xml version="1.0" standalone="no"?><!DOCTYPE svg PUBLIC "-//W3C//DTD SVG 1.1//EN" "http://www.w3.org/Graphics/SVG/1.1/DTD/svg11.dtd"><svg t="1657267974304" class="icon" viewBox="0 0 1024 1024" version="1.1" xmlns="http://www.w3.org/2000/svg" p-id="9667" xmlns:xlink="http://www.w3.org/1999/xlink" width="200" height="200"><defs><style type="text/css"></style></defs><path d="M1024 544c0 265.088-214.944 480-480 480h-64C214.912 1024 0 809.088 0 544v-64C0 214.912 214.912 0 480 0h64c265.056 0 480 214.912 480 480v64z" fill="#0ACC8B" p-id="9668"></path><path d="M864 612.576A100.864 100.864 0 0 1 763.424 512 100.864 100.864 0 0 1 864 411.424V260.576A100.864 100.864 0 0 0 763.424 160H260.576A100.896 100.896 0 0 0 160 260.576v150.848A100.864 100.864 0 0 1 260.576 512 100.864 100.864 0 0 1 160 612.576v150.88A100.864 100.864 0 0 0 260.576 864h502.848A100.864 100.864 0 0 0 864 763.424v-150.848z" fill="#FFFFFF" p-id="9669"></path><path d="M361.152 612.576h301.696v50.272h-301.696zM361.152 461.728h301.696V512h-301.696zM361.152 310.848h301.696v50.272h-301.696z" fill="#0ACC8B" p-id="9670"></path></svg>